<svg width="884" height="684" viewBox="0 0 884 684" fill="none" xmlns="http://www.w3.org/2000/svg">
<path d="M175.5 306L171 282H212L207 306H175.5Z" fill="url(#paint0_linear)"/>
<path d="M177.5 232.5C181.5 218.1 191.833 218.833 196.5 221L186 269.5H177V266L172.5 263L177 261V260V257H170V256H168V255H164V256H162V252.5H163V245H162.5L159.5 242.5L163 241V238C165.5 232 172 235.5 172 238V245.5L174 247H177.5V232.5Z" fill="#65A79B" stroke="#65A79B"/>
<path d="M185 231.5V269.5H205.5V265.5H206L211 263L205.5 260.5V257L210.5 254.5L205.5 252V249L210.5 246L205.5 243.5V240H206L211 237.5L205.5 235L205 231.5C199.5 213.5 185.5 224.5 185 231.5Z" fill="#64B6A9" stroke="#64B6A9"/>
<rect x="164" y="269" width="55" height="14" fill="url(#paint1_linear)"/>
<rect x="388" y="284" width="179" height="23" rx="11.5" fill="#899ACE"/>
<rect x="297" y="284" width="114" height="23" rx="11.5" fill="#5F80E1"/>
<path d="M249.53 156.5L265.53 201L289.03 262.5C290.63 269.7 297.697 272.833 301.03 273.5H428.53L496.03 271.5C483.197 237.167 456.83 166.7 454.03 159.5C451.23 152.3 444.864 149.5 442.03 149H253.03C248.23 149.4 248.697 154.167 249.53 156.5Z" fill="#5F80E1" stroke="#5F80E1"/>
<path d="M259 144L275 188.5L298.5 250C300.1 257.2 307.167 260.333 310.5 261H438L505.5 259C492.667 224.667 466.3 154.2 463.5 147C460.7 139.8 454.333 137 451.5 136.5H262.5C257.7 136.9 258.167 141.667 259 144Z" fill="#CECECE" stroke="#CECECE"/>
<path d="M434.5 159.5C431 152.5 441 144 451.5 157.5C456.5 167.5 439 168.5 434.5 159.5Z" fill="#FEFEFE"/>
<path d="M456 190L454.5 185.5H461.5L463.5 190H456Z" fill="#FEFEFE"/>
<path d="M426.5 178H459.5L458 174.5H426.5V178Z" fill="#FEFEFE"/>
<path d="M301 206L298.5 202H372L374 206H301Z" fill="#FEFEFE"/>
<path d="M306 219.5L304 214H339.5L342.5 219.5H306Z" fill="#FEFEFE"/>
<path d="M293.5 185.5C291.9 181.1 284.5 161.333 281 152H336L338.5 156H312V159.5H373C375.8 159.5 377.5 162.167 378 163.5L386 184.5C387.6 187.3 387.333 190 387 191L297.5 190.5C296.833 190.667 295.1 189.9 293.5 185.5Z" fill="#FEFEFE"/>
<path d="M434.5 159.5C431 152.5 441 144 451.5 157.5C456.5 167.5 439 168.5 434.5 159.5Z" stroke="#FEFEFE"/>
<path d="M456 190L454.5 185.5H461.5L463.5 190H456Z" stroke="#FEFEFE"/>
<path d="M426.5 178H459.5L458 174.5H426.5V178Z" stroke="#FEFEFE"/>
<path d="M301 206L298.5 202H372L374 206H301Z" stroke="#FEFEFE"/>
<path d="M306 219.5L304 214H339.5L342.5 219.5H306Z" stroke="#FEFEFE"/>
<path d="M293.5 185.5C291.9 181.1 284.5 161.333 281 152H336L338.5 156H312V159.5H373C375.8 159.5 377.5 162.167 378 163.5L386 184.5C387.6 187.3 387.333 190 387 191L297.5 190.5C296.833 190.667 295.1 189.9 293.5 185.5Z" stroke="#FEFEFE"/>
<path d="M328.628 301.015L322.466 297.771C321.8 297.421 321 297.904 321 298.656V304.494C321 305.209 321.729 305.693 322.388 305.416L328.55 302.821C329.328 302.493 329.375 301.408 328.628 301.015Z" fill="white" stroke="white"/>
<rect x="241" y="297" width="81" height="9" fill="url(#paint2_linear)"/>
<rect x="755" y="353" width="26" height="286" fill="#4E576F"/>
<rect x="598" y="353" width="26" height="286" fill="#4E576F"/>
<rect x="122" y="343" width="659" height="23" fill="#4E576F"/>
<path d="M535 357C540.6 358.2 542 363.5 542 366L208 365.5L173.5 363.5L165 355L488.5 357H535Z" fill="#7E8596" stroke="#7E8596"/>
<rect x="151" y="353" width="26" height="286" fill="#4E576F"/>
<rect x="308" y="353" width="26" height="286" fill="#4E576F"/>
<rect x="356" y="306" width="355" height="37" rx="3" fill="#887FBA"/>
<rect x="86" y="306" width="279" height="37" rx="3" fill="#9B93C5"/>
<path d="M295.5 638.5H287L286 637.5L297.5 572L305 548L313 554L295.5 638.5Z" fill="#4E576E" stroke="#4E576E"/>
<rect x="329" y="616" width="36" height="23" rx="11.5" fill="#4D566E"/>
<path d="M349 573H340L326 638H352.5C364.1 630 358 619.5 352.5 617.5H349V616.5V573Z" fill="#3F4E66" stroke="#3F4E66"/>
<path d="M348.5 537L338.5 531L315 638.5H328L348.5 537Z" fill="#4E566F" stroke="#4E566F"/>
<path d="M238.5 550.5L220.5 638.5H287L305.5 549.5L313 555.5L296 638.5H317L339.5 530.5H258L254 550L238.5 550.5Z" fill="#3E4D65" stroke="#3E4D65"/>
<path d="M252 567.5C249.6 567.5 248.667 569.833 248.5 571L245.5 589C245.5 590.6 247.167 591.667 248 592H277.5C278.7 592.4 279.667 590.167 280 589L283 570.5C283 568.5 281 567.667 280 567.5H252Z" fill="#4E576F" stroke="#4E576F"/>
<path d="M232 456.5C234 475.3 213.5 491.667 203 497.5L150.5 494L117.5 440.5C108.833 434.167 92.1 418.8 94.5 408C96.9 397.2 88.1667 388.833 83.5 386L72 381.5L54.5 292C65.3 301.2 70.6667 311.833 72 316C74.4 321.6 77 344.333 78 355C80 368.2 94.5 375.833 101.5 378C108.3 380.8 110.667 375.833 111 373C111 371.4 105.333 350.333 102.5 340C98.8999 321.6 101.667 308.333 103.5 304C109.9 288.8 121.5 285.333 126.5 285.5C142.1 286.7 150.667 301 153 308C157.4 316.4 155.5 330.833 154 337C152.4 348.2 139 364 132.5 370.5C126.1 380.5 125.5 389 126 392C127.2 400.8 134.833 404.333 138.5 405C145.3 406.6 151.667 398 154 393.5C159.5 361.5 169.5 357.5 171.5 353.5C173.1 350.3 180.5 349.5 184 349.5C200.4 349.9 210.5 367.333 213.5 376C214.3 395.2 196.833 402.667 188 404C184 403.6 166.667 411.5 158.5 415.5C137.7 426.7 136.5 447.5 138.5 456.5L139.5 470C143.333 475.167 155 483.4 171 475C187 466.6 196.333 449.167 199 441.5C201 432.3 207.5 429.667 210.5 429.5C226.9 430.7 231.667 448 232 456.5Z" fill="#64B6A9" stroke="#64B6A9"/>
<path d="M169.5 508C157.1 510 153.333 518.5 153 522.5V525.5L123.5 524V516C117.1 504 91.1667 494.667 79 491.5C65 486.7 67.1667 478.833 70 475.5C72.8 472.3 91.8333 464.167 101 460.5C127 432.1 94.5 426.5 82 439.5C68.8 455.1 59.5 459 56.5 459C23.7 462.6 16.8334 444.167 17.5 434.5C26.7 413.7 65.3334 412.833 83.5 415C89.9 415 93.5 409.667 94.5 407C111.3 431 130.833 449.333 138.5 455.5C141.7 474.3 160.5 476.667 169.5 475.5C195.5 487.9 208.667 491.333 212 491.5C207.2 496.7 181.667 504.667 169.5 508Z" fill="#65A79B" stroke="#65A79B"/>
<path d="M2 311C15.2 273 44.5 284.167 57.5 294.5C64.2269 347.524 77.7063 377.192 83.8039 385.729C78.847 382.313 69.2026 383.153 65 384C51.8 389.2 42.8333 388.833 40 388C20.4 383.6 9.16667 366.167 6 358C1.90735e-06 347.2 0.833335 322.167 2 311Z" fill="#64A69A"/>
<path d="M84 386C83.9355 385.912 83.8701 385.822 83.8039 385.729M83.8039 385.729C77.7063 377.192 64.2269 347.524 57.5 294.5C44.5 284.167 15.2 273 2 311C0.833335 322.167 1.90735e-06 347.2 6 358C9.16667 366.167 20.4 383.6 40 388C42.8333 388.833 51.8 389.2 65 384C69.2026 383.153 78.847 382.313 83.8039 385.729Z" stroke="#64A69A"/>
<path d="M90.5 638.5L71.5 523H186L169.5 638.5H90.5Z" fill="#7E8596" stroke="#7E8596"/>
<path d="M177.5 523.5H111L121.5 638.5H164L177.5 523.5Z" fill="#4E576F" stroke="#4E576F"/>
<path d="M181 563H77L78.0196 567H179.98L181 563Z" fill="#B0B4BD" stroke="#B0B4BD"/>
<path d="M184 548H74L75.0784 554H182.922L184 548Z" fill="#B0B4BD" stroke="#B0B4BD"/>
<path d="M140.5 522C139.507 518.524 137.928 512.265 136.164 504M26.5 312.5C27 315.667 29.6 325.1 36 337.5C44 353 57 365.5 67 369.5C77 373.5 96 388.5 103.5 396C105.501 398.001 107.929 401.035 110.5 405.091M136.164 504C137.276 500.167 143.1 492.4 157.5 492C163.833 492.833 178.3 493.3 185.5 488.5C190.167 487.333 201.7 478.8 210.5 454M136.164 504C135.271 499.814 134.33 495.114 133.394 490M133.394 490C131.837 481.489 130.292 471.834 129 461.5C128.456 457.148 127.781 453.001 127 449.059M133.394 490C132.93 487.833 129.7 483.1 120.5 481.5C116 481.167 103.8 480 91 478M127 449.059C126.833 442.206 129.6 426 142 416C145.667 412.667 155.5 404.5 165.5 398.5C170.5 396 182.5 386.4 190.5 368M127 449.059C125.929 443.652 124.661 438.632 123.264 434M123.264 434C121.342 429 114.7 419.1 103.5 419.5C101.333 419.167 93.6 420.6 80 429C74.8333 431.667 64 436.9 62 436.5C56 437.833 42.1 440 34.5 438M123.264 434C119.501 421.529 114.801 411.878 110.5 405.091M110.5 405.091C110 404.061 109.3 400.2 110.5 393C114.176 385.5 121.874 370 123.264 368C124.009 367.333 125.8 363 127 351L131 305.5" stroke="#D2E7E1" stroke-width="3"/>
<path d="M635.5 279L599.5 249.5L553.5 306H618C628 299.2 632.167 287.833 633 283L635.5 279Z" fill="#B38280" stroke="#B38280"/>
<path d="M515.5 118.5V62.5H522L570 153V158.5C530 155.7 517 130.667 515.5 118.5Z" fill="#B7A8A3" stroke="#B7A8A3"/>
<path d="M521 116.5V62L613.5 56.5L619.5 133V152.5C606.5 161.667 579.6 178.6 576 173C572.4 167.4 571.833 160.667 572 158H570V153.5C534.4 154.7 522.5 129.333 521 116.5Z" fill="#DEC1B8" stroke="#DEC1B8"/>
<path d="M637 38C637 58.4345 620.435 75 600 75C579.565 75 563 58.4345 563 38C563 17.5655 579.565 1 600 1C620.435 1 637 17.5655 637 38Z" fill="#20374E"/>
<path d="M568.5 1H491L491.5 37.5C494.3 54.3 511.333 63.5 519.5 66H539C539 73.1667 539.1 88.4 539.5 92C539.9 95.6 544.667 95.8333 547 95.5C548.6 96.3 552.333 94.1667 554 93V71.5C556.8 66.7 564.833 65.8333 568.5 66C582.5 68.4 584.667 78.6667 584 83.5C583.6 93.9 575.167 98.5 571 99.5C572 116.5 579.5 122 584 126.5C587.6 130.1 596.167 133.667 600 135L620 134.5C620.4 132.5 622.5 131.333 623.5 131V66C629.9 59.6 633.5 51 634.5 47.5V31C633.833 27.8333 631 19.8 625 13C619 6.2 608.5 3.16667 604 2.5H593.5C588.7 1.7 580.167 6.5 576.5 9C572.9 3.8 569.667 1.5 568.5 1Z" fill="#20374E"/>
<path d="M637 38C637 58.4345 620.435 75 600 75C579.565 75 563 58.4345 563 38C563 17.5655 579.565 1 600 1C620.435 1 637 17.5655 637 38Z" stroke="#20374E"/>
<path d="M568.5 1H491L491.5 37.5C494.3 54.3 511.333 63.5 519.5 66H539C539 73.1667 539.1 88.4 539.5 92C539.9 95.6 544.667 95.8333 547 95.5C548.6 96.3 552.333 94.1667 554 93V71.5C556.8 66.7 564.833 65.8333 568.5 66C582.5 68.4 584.667 78.6667 584 83.5C583.6 93.9 575.167 98.5 571 99.5C572 116.5 579.5 122 584 126.5C587.6 130.1 596.167 133.667 600 135L620 134.5C620.4 132.5 622.5 131.333 623.5 131V66C629.9 59.6 633.5 51 634.5 47.5V31C633.833 27.8333 631 19.8 625 13C619 6.2 608.5 3.16667 604 2.5H593.5C588.7 1.7 580.167 6.5 576.5 9C572.9 3.8 569.667 1.5 568.5 1Z" stroke="#20374E"/>
<path d="M411.565 209.465C395.965 234.265 424.065 254.799 440.065 261.965L520.065 306.965H556.065L594.565 257.465L551.065 222.965L525.065 255.465L470.065 227.965C469.265 213.565 460.399 202.632 456.065 198.965C432.565 183.965 416.565 200.965 411.565 209.465Z" fill="#DEC1B8"/>
<path d="M655 379.5V347L730 348.5V413.5C726.4 432.7 711.167 440.5 704 442L552 446L508.5 583.5L505.5 601.5H448.5L515.5 395.5C520.7 385.1 531.667 380.5 536.5 379.5H655Z" fill="#20364E" stroke="#20364E"/>
<rect x="660" y="354" width="33" height="16" fill="#3D4C6A"/>
<path d="M508.5 600.5H463.5V588C466.3 581.2 471.667 579.833 474 580C482.333 579.833 500 579.6 504 580C508 580.4 508.667 583.167 508.5 584.5V600.5Z" fill="#BCBCBC" stroke="#BCBCBC"/>
<path d="M569 431L624.5 600H621.5C621.667 599.667 621.9 598.8 621.5 598C621.1 597.2 620 596.333 619.5 596H612C611.2 596 610.667 597 610.5 597.5V600.5H609.5H601C601.167 600.167 601.4 599.1 601 597.5C600.6 595.9 600.167 595.833 600 596H591.5C590.7 596 590.5 597 590.5 597.5V600.5H589.5C589 600.333 586 600.1 578 600.5C570 600.9 565.333 609.333 564 613.5V638.5H686.5V580H672L646 501L628.5 431H569Z" fill="#20374E" stroke="#20374E"/>
<path d="M508 629V600.5H399.5C390.7 602.9 386.5 610.5 385.5 614V629H508Z" fill="#5F80E1" stroke="#5F80E1"/>
<rect x="411" y="595" width="13" height="16" rx="3" fill="#BCBCBC"/>
<rect x="431" y="595" width="13" height="16" rx="3" fill="#BCBCBC"/>
<rect x="701" y="354" width="17" height="16" fill="#3D4C6A"/>
<path d="M772.5 400C774.9 426.8 754.167 439.833 743.5 443H703C722.6 435.8 729.833 420.333 731 413.5V384L748 367.5C755.167 367.167 770.1 373.2 772.5 400Z" fill="#3D4C6A" stroke="#3D4C6A"/>
<path d="M385 629H509V639H385V629Z" fill="#BCBCBC"/>
<path d="M594 248.5C646 276.1 656 328 654.5 350.5H738C743.333 320.333 752.4 256.5 746 242.5C739.6 228.5 715 202.333 703.5 191C679.5 169.4 651.167 157.667 640 154.5C609.6 147.7 589.667 158.333 583.5 164.5C568.3 176.9 566.5 195.667 567.5 203.5C568.3 215.9 585.5 238.667 594 248.5Z" fill="#3E659A" stroke="#3E659A"/>
<path d="M583 181.5L551.5 222.5L595 257L629 213.5C638.6 195.9 628.333 181.833 622 177C603.2 165 588.167 175 583 181.5Z" fill="#5D97C8"/>
<mask id="mask0" mask-type="alpha" maskUnits="userSpaceOnUse" x="567" y="151" width="183" height="200">
<path d="M594.726 248.192C646.726 275.792 656.726 327.692 655.226 350.192H738.726C744.06 320.025 753.126 256.192 746.726 242.192C740.326 228.192 715.726 202.025 704.226 190.692C680.226 169.092 651.893 157.359 640.726 154.192C610.326 147.392 590.393 158.025 584.226 164.192C569.026 176.592 567.226 195.359 568.226 203.192C569.026 215.592 586.226 238.359 594.726 248.192Z" fill="#4C75B3" stroke="#4C75B3"/>
</mask>
<g mask="url(#mask0)">
<path d="M642 186C622 170.4 592.667 167.833 580.5 168.5L584.5 149L614.5 142.5L661.5 145L730 183L754 235L733 287.5C730.333 287.167 724.9 285.4 724.5 281C724.1 276.6 714.333 259.167 709.5 251C697.9 235 686 221.333 681.5 216.5C680.3 213.7 654.667 195 642 186Z" fill="#4B75B3"/>
</g>
<path d="M750.5 500.5C761.3 499.3 763 488.667 762.5 483.5H694V486V599H703L702.5 540.5H707C711.8 540.9 713.333 536.333 713.5 534V500.5H750.5Z" fill="#686F84" stroke="#686F84"/>
<path d="M618 485V483L729 482.5V485C729.8 496.2 721.333 500.333 717 501H700V535C700 539.8 697 540.667 695.5 540.5V542.5V599.5H680.5L681 540.5H676.5C672.9 539.3 670.667 535.333 670 533.5V501H629.5C618.3 497.8 617.167 489 618 485Z" fill="#4E576F" stroke="#4E576F"/>
<circle cx="748.5" cy="625.5" r="13.5" fill="#4E576F"/>
<path d="M707.5 623.5L765 624V610.5C765.4 604.9 758.167 600.833 754.5 599.5H707.5V623.5Z" fill="#687083" stroke="#687083"/>
<path d="M619 623.5C622 648 650 638.5 647.5 623.5H676.5C678.5 642.5 704 643.5 705.5 623.5H726.5V610C726.5 604 719.833 600.5 716.5 599.5L630 599C622.4 601 619.5 606.5 619 609V623.5Z" fill="#4E576F" stroke="#4E576F"/>
<rect x="645" y="442" width="190" height="43" rx="21.5" fill="#2C5A97"/>
<rect x="526" y="442" width="166" height="43" rx="21.5" fill="#788BA4"/>
<path d="M753.5 447H773.5C781.5 445.4 784.833 437 785.5 433V396L815 395.5V443C812.6 463.4 793.667 473.833 784.5 476.5H753.5C731.9 464.5 744 448.5 753.5 447Z" fill="#4D566F" stroke="#4D566F"/>
<path d="M798.5 437.5V396.5H815.5V442.5C810.3 473.7 782.333 478.167 769 476.5C787.8 474.1 796.5 449.5 798.5 437.5Z" fill="#686F84" stroke="#686F84"/>
<rect x="725" y="240" width="130" height="159" rx="34" fill="#788BA4"/>
<rect x="754" y="240" width="130" height="159" rx="34" fill="#2C5A97"/>
<path d="M876 639H24V654.5C28.8 675.7 46 682.333 54 683H847C865 679 873.833 662.667 876 655V639Z" fill="#B0B4BE" stroke="#B0B4BE"/>
<path d="M875 659C875.4 658.2 875.833 645 876 638.5H202V644C206 656 215 659.667 219 660H873.5C873.833 660 874.6 659.8 875 659Z" fill="#7E8596" stroke="#7E8596"/>
<defs>
<linearGradient id="paint0_linear" x1="173" y1="295" x2="209" y2="292" gradientUnits="userSpaceOnUse">
<stop offset="0.412934" stop-color="#FA9A3A"/>
<stop offset="0.472944" stop-color="#FBB74F"/>
</linearGradient>
<linearGradient id="paint1_linear" x1="164" y1="276" x2="219" y2="276" gradientUnits="userSpaceOnUse">
<stop offset="0.635417" stop-color="#FA9A3A"/>
<stop offset="0.6875" stop-color="#FBB74F"/>
</linearGradient>
<linearGradient id="paint2_linear" x1="281.5" y1="297" x2="281.5" y2="306" gradientUnits="userSpaceOnUse">
<stop offset="0.515625" stop-color="#FBB74F"/>
<stop offset="0.515725" stop-color="#FA9B3B"/>
</linearGradient>
</defs>
</svg>
