<svg width="120" height="79" viewBox="0 0 120 79" fill="none" xmlns="http://www.w3.org/2000/svg">
<path fill-rule="evenodd" clip-rule="evenodd" d="M20.06 59.0238L10.63 70.25H18.06C19.1646 70.25 20.06 69.3546 20.06 68.25V59.0238Z" fill="white"/>
<path fill-rule="evenodd" clip-rule="evenodd" d="M100.37 61.5L109.8 50.2738H102.37C101.265 50.2738 100.37 51.1692 100.37 52.2738V61.5Z" fill="white"/>
<path d="M9.936 70.26C8.064 70.26 6.372 69.828 4.86 68.964C3.372 68.076 2.184 66.876 1.296 65.364C0.432 63.852 0 62.148 0 60.252C0 58.356 0.396 56.664 1.188 55.176C2.004 53.664 3.108 52.476 4.5 51.612C5.892 50.724 7.464 50.28 9.216 50.28C10.632 50.28 11.94 50.58 13.14 51.18C14.34 51.756 15.348 52.548 16.164 53.556V43.836C16.164 43.284 16.332 42.84 16.668 42.504C17.028 42.168 17.472 42 18 42C18.552 42 18.996 42.168 19.332 42.504C19.668 42.84 19.836 43.284 19.836 43.836V60.252C19.836 62.148 19.392 63.852 18.504 65.364C17.64 66.876 16.464 68.076 14.976 68.964C13.488 69.828 11.808 70.26 9.936 70.26ZM9.936 67.02C11.16 67.02 12.252 66.732 13.212 66.156C14.172 65.556 14.928 64.74 15.48 63.708C16.032 62.676 16.308 61.524 16.308 60.252C16.308 58.956 16.032 57.804 15.48 56.796C14.928 55.788 14.172 54.996 13.212 54.42C12.252 53.82 11.16 53.52 9.936 53.52C8.736 53.52 7.644 53.82 6.66 54.42C5.7 54.996 4.932 55.788 4.356 56.796C3.804 57.804 3.528 58.956 3.528 60.252C3.528 61.524 3.804 62.676 4.356 63.708C4.932 64.74 5.7 65.556 6.66 66.156C7.644 66.732 8.736 67.02 9.936 67.02Z" fill="white"/>
<path d="M35.5725 70.26C33.5805 70.26 31.8045 69.84 30.2445 69C28.7085 68.136 27.4965 66.96 26.6085 65.472C25.7445 63.96 25.3125 62.232 25.3125 60.288C25.3125 58.32 25.7205 56.592 26.5365 55.104C27.3765 53.592 28.5285 52.416 29.9925 51.576C31.4565 50.712 33.1365 50.28 35.0325 50.28C36.9045 50.28 38.5125 50.7 39.8565 51.54C41.2005 52.356 42.2205 53.496 42.9165 54.96C43.6365 56.4 43.9965 58.068 43.9965 59.964C43.9965 60.42 43.8405 60.804 43.5285 61.116C43.2165 61.404 42.8205 61.548 42.3405 61.548H28.6605C28.9245 63.204 29.6805 64.56 30.9285 65.616C32.2005 66.648 33.7485 67.164 35.5725 67.164C36.3165 67.164 37.0725 67.032 37.8405 66.768C38.6325 66.48 39.2685 66.156 39.7485 65.796C40.1085 65.532 40.4925 65.4 40.9005 65.4C41.3325 65.376 41.7045 65.496 42.0165 65.76C42.4245 66.12 42.6405 66.516 42.6645 66.948C42.6885 67.38 42.4965 67.752 42.0885 68.064C41.2725 68.712 40.2525 69.24 39.0285 69.648C37.8285 70.056 36.6765 70.26 35.5725 70.26ZM35.0325 53.376C33.2565 53.376 31.8285 53.868 30.7485 54.852C29.6685 55.836 28.9845 57.108 28.6965 58.668H40.6845C40.4685 57.132 39.8805 55.872 38.9205 54.888C37.9605 53.88 36.6645 53.376 35.0325 53.376Z" fill="white"/>
<path d="M54.6367 70.08C53.8927 70.08 53.3167 69.684 52.9087 68.892L45.2767 52.8C45.0847 52.392 45.0607 51.996 45.2048 51.612C45.3727 51.204 45.6847 50.892 46.1408 50.676C46.5488 50.46 46.9567 50.424 47.3647 50.568C47.7967 50.712 48.1208 50.988 48.3368 51.396L54.6007 64.896L60.7928 51.396C61.0088 50.988 61.3328 50.712 61.7648 50.568C62.2208 50.424 62.6768 50.46 63.1328 50.676C63.5648 50.868 63.8527 51.168 63.9967 51.576C64.1407 51.984 64.1168 52.392 63.9248 52.8L56.2928 68.892C55.9328 69.684 55.3807 70.08 54.6367 70.08Z" fill="white"/>
<path d="M76.2483 70.26C74.2563 70.26 72.4803 69.84 70.9203 69C69.3843 68.136 68.1723 66.96 67.2843 65.472C66.4203 63.96 65.9883 62.232 65.9883 60.288C65.9883 58.32 66.3963 56.592 67.2123 55.104C68.0523 53.592 69.2043 52.416 70.6683 51.576C72.1323 50.712 73.8123 50.28 75.7083 50.28C77.5803 50.28 79.1883 50.7 80.5323 51.54C81.8763 52.356 82.8963 53.496 83.5923 54.96C84.3123 56.4 84.6723 58.068 84.6723 59.964C84.6723 60.42 84.5163 60.804 84.2043 61.116C83.8923 61.404 83.4963 61.548 83.0163 61.548H69.3363C69.6003 63.204 70.3563 64.56 71.6043 65.616C72.8763 66.648 74.4243 67.164 76.2483 67.164C76.9923 67.164 77.7483 67.032 78.5163 66.768C79.3083 66.48 79.9443 66.156 80.4243 65.796C80.7843 65.532 81.1683 65.4 81.5763 65.4C82.0083 65.376 82.3803 65.496 82.6923 65.76C83.1003 66.12 83.3163 66.516 83.3403 66.948C83.3643 67.38 83.1723 67.752 82.7643 68.064C81.9483 68.712 80.9283 69.24 79.7043 69.648C78.5043 70.056 77.3523 70.26 76.2483 70.26ZM75.7083 53.376C73.9323 53.376 72.5043 53.868 71.4243 54.852C70.3443 55.836 69.6603 57.108 69.3723 58.668H81.3603C81.1443 57.132 80.5563 55.872 79.5963 54.888C78.6363 53.88 77.3403 53.376 75.7083 53.376Z" fill="white"/>
<path d="M94.0357 70.116C92.9797 70.116 92.0437 69.828 91.2277 69.252C90.4117 68.676 89.7757 67.896 89.3197 66.912C88.8637 65.904 88.6357 64.752 88.6357 63.456V43.8C88.6357 43.272 88.8037 42.84 89.1397 42.504C89.4757 42.168 89.9077 42 90.4357 42C90.9637 42 91.3957 42.168 91.7317 42.504C92.0677 42.84 92.2357 43.272 92.2357 43.8V63.456C92.2357 64.344 92.4037 65.076 92.7397 65.652C93.0757 66.228 93.5077 66.516 94.0357 66.516H94.9357C95.4157 66.516 95.7997 66.684 96.0877 67.02C96.3997 67.356 96.5557 67.788 96.5557 68.316C96.5557 68.844 96.3277 69.276 95.8717 69.612C95.4157 69.948 94.8277 70.116 94.1077 70.116H94.0357Z" fill="white"/>
<path d="M101.985 78.54C101.457 78.54 101.013 78.36 100.653 78C100.317 77.664 100.149 77.232 100.149 76.704V60.288C100.173 58.392 100.617 56.688 101.481 55.176C102.345 53.664 103.521 52.476 105.009 51.612C106.497 50.724 108.177 50.28 110.049 50.28C111.945 50.28 113.637 50.724 115.125 51.612C116.613 52.476 117.789 53.664 118.653 55.176C119.541 56.688 119.985 58.392 119.985 60.288C119.985 62.184 119.577 63.888 118.761 65.4C117.969 66.888 116.877 68.076 115.485 68.964C114.093 69.828 112.521 70.26 110.769 70.26C109.353 70.26 108.045 69.972 106.845 69.396C105.669 68.796 104.661 67.992 103.821 66.984V76.704C103.821 77.232 103.653 77.664 103.317 78C102.981 78.36 102.537 78.54 101.985 78.54ZM110.049 67.02C111.273 67.02 112.365 66.732 113.325 66.156C114.285 65.556 115.041 64.752 115.593 63.744C116.169 62.712 116.457 61.56 116.457 60.288C116.457 58.992 116.169 57.84 115.593 56.832C115.041 55.8 114.285 54.996 113.325 54.42C112.365 53.82 111.273 53.52 110.049 53.52C108.849 53.52 107.757 53.82 106.773 54.42C105.813 54.996 105.057 55.8 104.505 56.832C103.953 57.84 103.677 58.992 103.677 60.288C103.677 61.56 103.953 62.712 104.505 63.744C105.057 64.752 105.813 65.556 106.773 66.156C107.757 66.732 108.849 67.02 110.049 67.02Z" fill="white"/>
<circle cx="58.1667" cy="19" r="14.3333" stroke="white" stroke-width="3"/>
<circle cx="79.5417" cy="34.0417" r="2.95833" stroke="white" stroke-width="2"/>
<circle cx="75.9584" cy="8.04167" r="3.95833" transform="rotate(-180 75.9584 8.04167)" fill="white"/>
<path fill-rule="evenodd" clip-rule="evenodd" d="M68.2714 9.36645C69.2354 9.29169 70.1517 9.2629 71.0108 9.2789C73.0976 9.31777 74.6862 9.61825 75.7604 10.0458C76.8247 10.4694 77.1209 10.8991 77.2101 11.1027C77.2993 11.3062 77.41 11.8051 76.9639 12.7925C76.5137 13.7891 75.598 15.0245 74.1271 16.3914C71.1976 19.1139 66.5164 21.9412 60.7529 24.0927C54.9893 26.2441 49.4948 27.2152 45.3385 27.1378C43.2517 27.0989 41.6631 26.7984 40.5888 26.3709C39.5245 25.9473 39.2284 25.5176 39.1392 25.314C39.05 25.1104 38.9393 24.6115 39.3853 23.6241C39.8356 22.6275 40.7513 21.3922 42.2221 20.0253C42.9827 19.3185 43.8612 18.6047 44.8462 17.8975L45.3416 13.9338C38.6007 18.0674 34.8237 22.9285 36.3286 26.3632C38.4175 31.1306 49.8916 31.3443 61.9568 26.8405C74.022 22.3367 82.1095 14.8209 80.0206 10.0535C78.5487 6.69406 72.4163 5.5958 64.7008 6.81606L68.2714 9.36645Z" fill="white"/>
<path d="M37.6624 2.69525L43.0528 6.01996M38.6952 7.05285L42.02 1.66235" stroke="white" stroke-width="2"/>
</svg>
