<svg width="157" height="38" viewBox="0 0 157 38" fill="none" xmlns="http://www.w3.org/2000/svg">
<path d="M70.1865 17.9086L62.0128 27.74H68.4529C69.4103 27.74 70.1865 26.9558 70.1865 25.9885V17.9086Z" fill="white"/>
<path d="M139.797 20.0772L147.971 10.2458H141.531C140.574 10.2458 139.797 11.03 139.797 11.9973V20.0772Z" fill="white"/>
<path d="M61.6123 27.7488C59.9897 27.7488 58.5231 27.3704 57.2125 26.6138C55.9228 25.8361 54.893 24.7852 54.1233 23.4611C53.3744 22.1369 53 20.6447 53 18.9842C53 17.3238 53.3432 15.842 54.0297 14.5389C54.737 13.2148 55.6939 12.1744 56.9005 11.4177C58.1071 10.6401 59.4696 10.2512 60.9882 10.2512C62.2156 10.2512 63.3493 10.514 64.3895 11.0394C65.4296 11.5438 66.3033 12.2374 67.0106 13.1202V4.60788C67.0106 4.12447 67.1562 3.73563 67.4475 3.44138C67.7595 3.14713 68.1443 3 68.602 3C69.0805 3 69.4653 3.14713 69.7565 3.44138C70.0478 3.73563 70.1934 4.12447 70.1934 4.60788V18.9842C70.1934 20.6447 69.8086 22.1369 69.0389 23.4611C68.29 24.7852 67.2706 25.8361 65.9809 26.6138C64.6911 27.3704 63.2349 27.7488 61.6123 27.7488ZM61.6123 24.9113C62.6732 24.9113 63.6198 24.6591 64.4519 24.1547C65.284 23.6292 65.9393 22.9146 66.4177 22.0108C66.8962 21.1071 67.1354 20.0982 67.1354 18.9842C67.1354 17.8493 66.8962 16.8404 66.4177 15.9576C65.9393 15.0749 65.284 14.3813 64.4519 13.8768C63.6198 13.3514 62.6732 13.0887 61.6123 13.0887C60.5722 13.0887 59.6256 13.3514 58.7727 13.8768C57.9406 14.3813 57.2749 15.0749 56.7757 15.9576C56.2972 16.8404 56.058 17.8493 56.058 18.9842C56.058 20.0982 56.2972 21.1071 56.7757 22.0108C57.2749 22.9146 57.9406 23.6292 58.7727 24.1547C59.6256 24.6591 60.5722 24.9113 61.6123 24.9113Z" fill="white"/>
<path d="M83.8334 27.7488C82.1068 27.7488 80.5674 27.381 79.2153 26.6453C77.8839 25.8887 76.8334 24.8588 76.0637 23.5557C75.3148 22.2315 74.9403 20.7182 74.9403 19.0158C74.9403 17.2923 75.294 15.779 76.0012 14.4759C76.7293 13.1517 77.7279 12.1218 78.9968 11.3862C80.2658 10.6296 81.722 10.2512 83.3654 10.2512C84.988 10.2512 86.3818 10.619 87.5467 11.3547C88.7117 12.0693 89.5958 13.0677 90.1991 14.3498C90.8231 15.6108 91.1352 17.0716 91.1352 18.732C91.1352 19.1314 91 19.4677 90.7295 19.7409C90.4591 19.9931 90.1159 20.1192 89.6998 20.1192H77.8423C78.0711 21.5695 78.7264 22.757 79.8081 23.6818C80.9107 24.5856 82.2524 25.0374 83.8334 25.0374C84.4783 25.0374 85.1336 24.9218 85.7993 24.6906C86.4858 24.4384 87.0371 24.1547 87.4531 23.8394C87.7652 23.6082 88.098 23.4926 88.4516 23.4926C88.8261 23.4716 89.1485 23.5767 89.419 23.8079C89.7726 24.1232 89.9598 24.4699 89.9806 24.8483C90.0014 25.2266 89.835 25.5524 89.4814 25.8256C88.7741 26.3931 87.89 26.8555 86.829 27.2128C85.7889 27.5701 84.7904 27.7488 83.8334 27.7488ZM83.3654 12.9626C81.826 12.9626 80.5882 13.3934 79.6521 14.2552C78.716 15.1169 78.1231 16.2309 77.8735 17.597H88.2644C88.0772 16.2519 87.5675 15.1484 86.7354 14.2867C85.9033 13.4039 84.78 12.9626 83.3654 12.9626Z" fill="white"/>
<path d="M100.358 27.5911C99.713 27.5911 99.2138 27.2443 98.8601 26.5507L92.2449 12.4581C92.0785 12.1008 92.0577 11.754 92.1825 11.4177C92.3281 11.0604 92.5985 10.7872 92.9938 10.598C93.3474 10.4089 93.7011 10.3773 94.0547 10.5034C94.4292 10.6296 94.71 10.8713 94.8972 11.2286L100.327 23.0512L105.694 11.2286C105.881 10.8713 106.162 10.6296 106.536 10.5034C106.932 10.3773 107.327 10.4089 107.722 10.598C108.097 10.7662 108.346 11.0289 108.471 11.3862C108.596 11.7435 108.575 12.1008 108.409 12.4581L101.793 26.5507C101.481 27.2443 101.003 27.5911 100.358 27.5911Z" fill="white"/>
<path d="M119.09 27.7488C117.364 27.7488 115.824 27.381 114.472 26.6453C113.141 25.8887 112.09 24.8588 111.321 23.5557C110.572 22.2315 110.197 20.7182 110.197 19.0158C110.197 17.2923 110.551 15.779 111.258 14.4759C111.986 13.1517 112.985 12.1218 114.254 11.3862C115.523 10.6296 116.979 10.2512 118.622 10.2512C120.245 10.2512 121.639 10.619 122.804 11.3547C123.969 12.0693 124.853 13.0677 125.456 14.3498C126.08 15.6108 126.392 17.0716 126.392 18.732C126.392 19.1314 126.257 19.4677 125.986 19.7409C125.716 19.9931 125.373 20.1192 124.957 20.1192H113.099C113.328 21.5695 113.983 22.757 115.065 23.6818C116.168 24.5856 117.509 25.0374 119.09 25.0374C119.735 25.0374 120.39 24.9218 121.056 24.6906C121.743 24.4384 122.294 24.1547 122.71 23.8394C123.022 23.6082 123.355 23.4926 123.709 23.4926C124.083 23.4716 124.405 23.5767 124.676 23.8079C125.029 24.1232 125.217 24.4699 125.237 24.8483C125.258 25.2266 125.092 25.5524 124.738 25.8256C124.031 26.3931 123.147 26.8555 122.086 27.2128C121.046 27.5701 120.047 27.7488 119.09 27.7488ZM118.622 12.9626C117.083 12.9626 115.845 13.3934 114.909 14.2552C113.973 15.1169 113.38 16.2309 113.13 17.597H123.521C123.334 16.2519 122.824 15.1484 121.992 14.2867C121.16 13.4039 120.037 12.9626 118.622 12.9626Z" fill="white"/>
<path d="M134.508 27.6227C133.593 27.6227 132.781 27.3704 132.074 26.866C131.367 26.3616 130.816 25.6785 130.42 24.8167C130.025 23.934 129.827 22.9251 129.827 21.7901V4.57635C129.827 4.11396 129.973 3.73563 130.264 3.44138C130.556 3.14713 130.93 3 131.388 3C131.845 3 132.22 3.14713 132.511 3.44138C132.802 3.73563 132.948 4.11396 132.948 4.57635V21.7901C132.948 22.5678 133.093 23.2089 133.385 23.7133C133.676 24.2177 134.05 24.47 134.508 24.47H135.288C135.704 24.47 136.037 24.6171 136.287 24.9113C136.557 25.2056 136.692 25.5839 136.692 26.0463C136.692 26.5087 136.495 26.887 136.099 27.1813C135.704 27.4755 135.195 27.6227 134.57 27.6227H134.508Z" fill="white"/>
<path d="M141.398 35C140.94 35 140.555 34.8424 140.243 34.5271C139.952 34.2328 139.807 33.8545 139.807 33.3921V19.0158C139.827 17.3553 140.212 15.8631 140.961 14.5389C141.71 13.2148 142.729 12.1744 144.019 11.4177C145.309 10.6401 146.765 10.2512 148.388 10.2512C150.031 10.2512 151.498 10.6401 152.787 11.4177C154.077 12.1744 155.097 13.2148 155.845 14.5389C156.615 15.8631 157 17.3553 157 19.0158C157 20.6762 156.646 22.1685 155.939 23.4926C155.253 24.7957 154.306 25.8361 153.1 26.6138C151.893 27.3704 150.53 27.7488 149.012 27.7488C147.784 27.7488 146.651 27.4966 145.611 26.9921C144.591 26.4667 143.717 25.7626 142.989 24.8798V33.3921C142.989 33.8545 142.844 34.2328 142.553 34.5271C142.261 34.8424 141.876 35 141.398 35ZM148.388 24.9113C149.449 24.9113 150.395 24.6591 151.227 24.1547C152.059 23.6292 152.715 22.9251 153.193 22.0424C153.692 21.1386 153.942 20.1297 153.942 19.0158C153.942 17.8808 153.692 16.8719 153.193 15.9892C152.715 15.0854 152.059 14.3813 151.227 13.8768C150.395 13.3514 149.449 13.0887 148.388 13.0887C147.348 13.0887 146.401 13.3514 145.548 13.8768C144.716 14.3813 144.061 15.0854 143.582 15.9892C143.104 16.8719 142.865 17.8808 142.865 19.0158C142.865 20.1297 143.104 21.1386 143.582 22.0424C144.061 22.9251 144.716 23.6292 145.548 24.1547C146.401 24.6591 147.348 24.9113 148.388 24.9113Z" fill="white"/>
<circle cx="22.1666" cy="19" r="14.3333" stroke="white" stroke-width="3"/>
<circle cx="43.5416" cy="34.0417" r="2.95833" stroke="white" stroke-width="2"/>
<circle cx="39.9584" cy="8.04167" r="3.95833" transform="rotate(-180 39.9584 8.04167)" fill="white"/>
<path fill-rule="evenodd" clip-rule="evenodd" d="M32.2714 9.36645C33.2354 9.2917 34.1516 9.2629 35.0108 9.2789C37.0976 9.31777 38.6862 9.61825 39.7604 10.0458C40.8247 10.4694 41.1209 10.8991 41.2101 11.1027C41.2993 11.3062 41.41 11.8052 40.9639 12.7925C40.5137 13.7892 39.598 15.0245 38.1271 16.3914C35.1976 19.1139 30.5164 21.9412 24.7529 24.0927C18.9893 26.2441 13.4948 27.2152 9.3385 27.1378C7.25167 27.0989 5.66305 26.7984 4.58881 26.3709C3.52453 25.9473 3.22838 25.5176 3.13918 25.314C3.04999 25.1104 2.93927 24.6115 3.38533 23.6241C3.83556 22.6275 4.75127 21.3922 6.22214 20.0253C6.98267 19.3185 7.86124 18.6047 8.84615 17.8975L9.34161 13.9338C2.60066 18.0674 -1.17628 22.9285 0.328615 26.3632C2.41747 31.1306 13.8916 31.3443 25.9568 26.8405C38.022 22.3367 46.1095 14.8209 44.0206 10.0535C42.5487 6.69406 36.4163 5.5958 28.7008 6.81606L32.2714 9.36645Z" fill="white"/>
<path d="M1.66235 2.69525L7.05285 6.01996M2.69524 7.05285L6.01995 1.66235" stroke="white" stroke-width="2"/>
</svg>
