<svg width="71" height="71" viewBox="0 0 71 71" fill="none" xmlns="http://www.w3.org/2000/svg">
<path d="M68.7808 52.1406V5.54688C68.7797 4.66452 68.4288 3.81859 67.8048 3.19467C67.1809 2.57075 66.335 2.21978 65.4526 2.21875H5.54639C4.66403 2.21978 3.8181 2.57075 3.19418 3.19467C2.57026 3.81859 2.21929 4.66452 2.21826 5.54688V52.1406C2.21929 53.023 2.57026 53.8689 3.19418 54.4928C3.8181 55.1168 4.66403 55.4677 5.54639 55.4688H27.5336L25.6847 66.5625H21.0776C20.7834 66.5625 20.5012 66.6794 20.2932 66.8874C20.0851 67.0955 19.9683 67.3776 19.9683 67.6719C19.9683 67.9661 20.0851 68.2483 20.2932 68.4563C20.5012 68.6644 20.7834 68.7812 21.0776 68.7812H49.9214C50.2156 68.7812 50.4978 68.6644 50.7058 68.4563C50.9139 68.2483 51.0308 67.9661 51.0308 67.6719C51.0308 67.3776 50.9139 67.0955 50.7058 66.8874C50.4978 66.6794 50.2156 66.5625 49.9214 66.5625H45.3143L43.4654 55.4688H52.9801L62.6301 65.1188C63.2543 65.7429 64.1008 66.0936 64.9834 66.0936C65.8661 66.0936 66.7126 65.7429 67.3368 65.1188C67.96 64.4941 68.3099 63.6478 68.3099 62.7655C68.3099 61.8831 67.96 61.0368 67.3368 60.4121L62.3934 55.4688H65.4526C66.335 55.4677 67.1809 55.1168 67.8048 54.4928C68.4288 53.8689 68.7797 53.023 68.7808 52.1406ZM44.5882 43.939L46.157 42.3701L50.8635 47.0766L49.2946 48.6461L44.5882 43.939ZM42.6794 42.7101L39.6491 41.9525C39.0532 41.8053 38.5099 41.4955 38.0798 41.0575C37.6497 40.6195 37.3498 40.0707 37.2134 39.4723L35.8702 33.6519L41.6905 34.9951C42.289 35.1315 42.8378 35.4315 43.2758 35.8616C43.7137 36.2917 44.0236 36.835 44.1708 37.4309L44.9284 40.4611L42.6794 42.7101ZM47.1585 40.2341L46.3231 36.8921C46.0777 35.899 45.5612 34.9935 44.8312 34.2767C44.1012 33.5599 43.1865 33.06 42.189 32.8326L34.6397 31.0909C34.4564 31.0486 34.2653 31.0536 34.0845 31.1055C33.9036 31.1574 33.7389 31.2544 33.6058 31.3874C33.4728 31.5205 33.3758 31.6852 33.3239 31.8661C33.272 32.0469 33.267 32.238 33.3093 32.4213L35.0516 39.9711C35.2351 40.7677 35.5924 41.5138 36.0979 42.1562H4.43701V13.3125H66.562V42.1562H49.0809L47.1585 40.2341ZM5.54639 4.4375H65.4526C65.7468 4.43783 66.0287 4.55482 66.2367 4.76279C66.4447 4.97077 66.5617 5.25275 66.562 5.54688V11.0938H4.43701V5.54688C4.43734 5.25275 4.55433 4.97077 4.7623 4.76279C4.97028 4.55482 5.25226 4.43783 5.54639 4.4375ZM43.0649 66.5625H27.9341L29.783 55.4688H41.216L43.0649 66.5625ZM5.54639 53.25C5.25226 53.2497 4.97028 53.1327 4.7623 52.9247C4.55433 52.7167 4.43734 52.4347 4.43701 52.1406V44.375H40.1905L42.4517 44.9402L50.7613 53.25H5.54639ZM65.7678 63.5499C65.6648 63.6529 65.5425 63.7346 65.4079 63.7903C65.2733 63.8461 65.1291 63.8748 64.9834 63.8748C64.8377 63.8748 64.6934 63.8461 64.5588 63.7903C64.4242 63.7346 64.3019 63.6529 64.1989 63.5499L50.8635 50.2145L52.4325 48.6461L65.7678 61.9815C65.9754 62.1897 66.0919 62.4717 66.0919 62.7657C66.0919 63.0597 65.9754 63.3416 65.7678 63.5499ZM51.2996 44.375H66.562V52.1406C66.5617 52.4347 66.4447 52.7167 66.2367 52.9247C66.0287 53.1327 65.7468 53.2497 65.4526 53.25H60.1746L51.2996 44.375Z" fill="white"/>
<path d="M37.7183 46.5938H33.2808C32.9865 46.5938 32.7044 46.7106 32.4963 46.9187C32.2883 47.1267 32.1714 47.4089 32.1714 47.7031C32.1714 47.9973 32.2883 48.2795 32.4963 48.4876C32.7044 48.6956 32.9865 48.8125 33.2808 48.8125H37.7183C38.0125 48.8125 38.2947 48.6956 38.5027 48.4876C38.7108 48.2795 38.8276 47.9973 38.8276 47.7031C38.8276 47.4089 38.7108 47.1267 38.5027 46.9187C38.2947 46.7106 38.0125 46.5938 37.7183 46.5938Z" fill="white"/>
<path d="M7.76514 8.875C8.37783 8.875 8.87451 8.37832 8.87451 7.76562C8.87451 7.15293 8.37783 6.65625 7.76514 6.65625C7.15245 6.65625 6.65576 7.15293 6.65576 7.76562C6.65576 8.37832 7.15245 8.875 7.76514 8.875Z" fill="white"/>
<path d="M12.2026 8.875C12.8153 8.875 13.312 8.37832 13.312 7.76562C13.312 7.15293 12.8153 6.65625 12.2026 6.65625C11.5899 6.65625 11.0933 7.15293 11.0933 7.76562C11.0933 8.37832 11.5899 8.875 12.2026 8.875Z" fill="white"/>
<path d="M16.6401 8.875C17.2528 8.875 17.7495 8.37832 17.7495 7.76562C17.7495 7.15293 17.2528 6.65625 16.6401 6.65625C16.0274 6.65625 15.5308 7.15293 15.5308 7.76562C15.5308 8.37832 16.0274 8.875 16.6401 8.875Z" fill="white"/>
<path d="M14.4214 17.75H16.6401C16.9344 17.75 17.2165 17.6331 17.4246 17.4251C17.6326 17.217 17.7495 16.9348 17.7495 16.6406C17.7495 16.3464 17.6326 16.0642 17.4246 15.8562C17.2165 15.6481 16.9344 15.5312 16.6401 15.5312H14.4214C14.1272 15.5312 13.845 15.6481 13.6369 15.8562C13.4289 16.0642 13.312 16.3464 13.312 16.6406C13.312 16.9348 13.4289 17.217 13.6369 17.4251C13.845 17.6331 14.1272 17.75 14.4214 17.75Z" fill="white"/>
<path d="M21.0776 17.75H23.2964C23.5906 17.75 23.8728 17.6331 24.0808 17.4251C24.2889 17.217 24.4058 16.9348 24.4058 16.6406C24.4058 16.3464 24.2889 16.0642 24.0808 15.8562C23.8728 15.6481 23.5906 15.5312 23.2964 15.5312H21.0776C20.7834 15.5312 20.5012 15.6481 20.2932 15.8562C20.0851 16.0642 19.9683 16.3464 19.9683 16.6406C19.9683 16.9348 20.0851 17.217 20.2932 17.4251C20.5012 17.6331 20.7834 17.75 21.0776 17.75Z" fill="white"/>
<path d="M9.98389 37.7188H8.87451V36.6094C8.87451 36.3152 8.75763 36.033 8.54958 35.8249C8.34153 35.6169 8.05936 35.5 7.76514 35.5C7.47091 35.5 7.18874 35.6169 6.98069 35.8249C6.77264 36.033 6.65576 36.3152 6.65576 36.6094V38.8281C6.65576 39.1223 6.77264 39.4045 6.98069 39.6126C7.18874 39.8206 7.47091 39.9375 7.76514 39.9375H9.98389C10.2781 39.9375 10.5603 39.8206 10.7683 39.6126C10.9764 39.4045 11.0933 39.1223 11.0933 38.8281C11.0933 38.5339 10.9764 38.2517 10.7683 38.0437C10.5603 37.8356 10.2781 37.7188 9.98389 37.7188Z" fill="white"/>
<path d="M16.6401 37.7188H14.4214C14.1272 37.7188 13.845 37.8356 13.6369 38.0437C13.4289 38.2517 13.312 38.5339 13.312 38.8281C13.312 39.1223 13.4289 39.4045 13.6369 39.6126C13.845 39.8206 14.1272 39.9375 14.4214 39.9375H16.6401C16.9344 39.9375 17.2165 39.8206 17.4246 39.6126C17.6326 39.4045 17.7495 39.1223 17.7495 38.8281C17.7495 38.5339 17.6326 38.2517 17.4246 38.0437C17.2165 37.8356 16.9344 37.7188 16.6401 37.7188Z" fill="white"/>
<path d="M23.2964 37.7188H21.0776C20.7834 37.7188 20.5012 37.8356 20.2932 38.0437C20.0851 38.2517 19.9683 38.5339 19.9683 38.8281C19.9683 39.1223 20.0851 39.4045 20.2932 39.6126C20.5012 39.8206 20.7834 39.9375 21.0776 39.9375H23.2964C23.5906 39.9375 23.8728 39.8206 24.0808 39.6126C24.2889 39.4045 24.4058 39.1223 24.4058 38.8281C24.4058 38.5339 24.2889 38.2517 24.0808 38.0437C23.8728 37.8356 23.5906 37.7188 23.2964 37.7188Z" fill="white"/>
<path d="M29.9526 15.5312H27.7339C27.4397 15.5312 27.1575 15.6481 26.9494 15.8562C26.7414 16.0642 26.6245 16.3464 26.6245 16.6406C26.6245 16.9348 26.7414 17.217 26.9494 17.4251C27.1575 17.6331 27.4397 17.75 27.7339 17.75H28.8433V18.8594C28.8433 19.1536 28.9601 19.4358 29.1682 19.6438C29.3762 19.8519 29.6584 19.9688 29.9526 19.9688C30.2469 19.9688 30.529 19.8519 30.7371 19.6438C30.9451 19.4358 31.062 19.1536 31.062 18.8594V16.6406C31.062 16.3464 30.9451 16.0642 30.7371 15.8562C30.529 15.6481 30.2469 15.5312 29.9526 15.5312Z" fill="white"/>
<path d="M29.9526 22.1875C29.6584 22.1875 29.3762 22.3044 29.1682 22.5124C28.9601 22.7205 28.8433 23.0027 28.8433 23.2969V25.5156C28.8433 25.8098 28.9601 26.092 29.1682 26.3001C29.3762 26.5081 29.6584 26.625 29.9526 26.625C30.2469 26.625 30.529 26.5081 30.7371 26.3001C30.9451 26.092 31.062 25.8098 31.062 25.5156V23.2969C31.062 23.0027 30.9451 22.7205 30.7371 22.5124C30.529 22.3044 30.2469 22.1875 29.9526 22.1875Z" fill="white"/>
<path d="M29.9526 28.8438C29.6584 28.8438 29.3762 28.9606 29.1682 29.1687C28.9601 29.3767 28.8433 29.6589 28.8433 29.9531V32.1719C28.8433 32.4661 28.9601 32.7483 29.1682 32.9563C29.3762 33.1644 29.6584 33.2812 29.9526 33.2812C30.2469 33.2812 30.529 33.1644 30.7371 32.9563C30.9451 32.7483 31.062 32.4661 31.062 32.1719V29.9531C31.062 29.6589 30.9451 29.3767 30.7371 29.1687C30.529 28.9606 30.2469 28.8438 29.9526 28.8438Z" fill="white"/>
<path d="M29.9526 35.5C29.6584 35.5 29.3762 35.6169 29.1682 35.8249C28.9601 36.033 28.8433 36.3152 28.8433 36.6094V37.7188H27.7339C27.4397 37.7188 27.1575 37.8356 26.9494 38.0437C26.7414 38.2517 26.6245 38.5339 26.6245 38.8281C26.6245 39.1223 26.7414 39.4045 26.9494 39.6126C27.1575 39.8206 27.4397 39.9375 27.7339 39.9375H29.9526C30.2469 39.9375 30.529 39.8206 30.7371 39.6126C30.9451 39.4045 31.062 39.1223 31.062 38.8281V36.6094C31.062 36.3152 30.9451 36.033 30.7371 35.8249C30.529 35.6169 30.2469 35.5 29.9526 35.5Z" fill="white"/>
<path d="M7.76514 19.9688C8.05936 19.9688 8.34153 19.8519 8.54958 19.6438C8.75763 19.4358 8.87451 19.1536 8.87451 18.8594V17.75H9.98389C10.2781 17.75 10.5603 17.6331 10.7683 17.4251C10.9764 17.217 11.0933 16.9348 11.0933 16.6406C11.0933 16.3464 10.9764 16.0642 10.7683 15.8562C10.5603 15.6481 10.2781 15.5312 9.98389 15.5312H7.76514C7.47091 15.5312 7.18874 15.6481 6.98069 15.8562C6.77264 16.0642 6.65576 16.3464 6.65576 16.6406V18.8594C6.65576 19.1536 6.77264 19.4358 6.98069 19.6438C7.18874 19.8519 7.47091 19.9688 7.76514 19.9688Z" fill="white"/>
<path d="M7.76514 26.625C8.05936 26.625 8.34153 26.5081 8.54958 26.3001C8.75763 26.092 8.87451 25.8098 8.87451 25.5156V23.2969C8.87451 23.0027 8.75763 22.7205 8.54958 22.5124C8.34153 22.3044 8.05936 22.1875 7.76514 22.1875C7.47091 22.1875 7.18874 22.3044 6.98069 22.5124C6.77264 22.7205 6.65576 23.0027 6.65576 23.2969V25.5156C6.65576 25.8098 6.77264 26.092 6.98069 26.3001C7.18874 26.5081 7.47091 26.625 7.76514 26.625Z" fill="white"/>
<path d="M7.76514 33.2812C8.05936 33.2812 8.34153 33.1644 8.54958 32.9563C8.75763 32.7483 8.87451 32.4661 8.87451 32.1719V29.9531C8.87451 29.6589 8.75763 29.3767 8.54958 29.1687C8.34153 28.9606 8.05936 28.8438 7.76514 28.8438C7.47091 28.8438 7.18874 28.9606 6.98069 29.1687C6.77264 29.3767 6.65576 29.6589 6.65576 29.9531V32.1719C6.65576 32.4661 6.77264 32.7483 6.98069 32.9563C7.18874 33.1644 7.47091 33.2812 7.76514 33.2812Z" fill="white"/>
<path d="M41.0464 26.625H34.3901C34.0959 26.625 33.8137 26.7419 33.6057 26.9499C33.3976 27.158 33.2808 27.4402 33.2808 27.7344C33.2808 28.0286 33.3976 28.3108 33.6057 28.5188C33.8137 28.7269 34.0959 28.8438 34.3901 28.8438H41.0464C41.3406 28.8438 41.6228 28.7269 41.8308 28.5188C42.0389 28.3108 42.1558 28.0286 42.1558 27.7344C42.1558 27.4402 42.0389 27.158 41.8308 26.9499C41.6228 26.7419 41.3406 26.625 41.0464 26.625Z" fill="white"/>
<path d="M63.2339 26.625H45.4839C45.1897 26.625 44.9075 26.7419 44.6994 26.9499C44.4914 27.158 44.3745 27.4402 44.3745 27.7344C44.3745 28.0286 44.4914 28.3108 44.6994 28.5188C44.9075 28.7269 45.1897 28.8438 45.4839 28.8438H63.2339C63.5281 28.8438 63.8103 28.7269 64.0183 28.5188C64.2264 28.3108 64.3433 28.0286 64.3433 27.7344C64.3433 27.4402 64.2264 27.158 64.0183 26.9499C63.8103 26.7419 63.5281 26.625 63.2339 26.625Z" fill="white"/>
<path d="M63.2339 31.0625H47.7026C47.4084 31.0625 47.1262 31.1794 46.9182 31.3874C46.7101 31.5955 46.5933 31.8777 46.5933 32.1719C46.5933 32.4661 46.7101 32.7483 46.9182 32.9563C47.1262 33.1644 47.4084 33.2812 47.7026 33.2812H63.2339C63.5281 33.2812 63.8103 33.1644 64.0183 32.9563C64.2264 32.7483 64.3433 32.4661 64.3433 32.1719C64.3433 31.8777 64.2264 31.5955 64.0183 31.3874C63.8103 31.1794 63.5281 31.0625 63.2339 31.0625Z" fill="white"/>
<path d="M63.2339 15.5312H34.3901C34.0959 15.5312 33.8137 15.6481 33.6057 15.8562C33.3976 16.0642 33.2808 16.3464 33.2808 16.6406V23.2969C33.2808 23.5911 33.3976 23.8733 33.6057 24.0813C33.8137 24.2894 34.0959 24.4062 34.3901 24.4062H63.2339C63.5281 24.4062 63.8103 24.2894 64.0183 24.0813C64.2264 23.8733 64.3433 23.5911 64.3433 23.2969V16.6406C64.3433 16.3464 64.2264 16.0642 64.0183 15.8562C63.8103 15.6481 63.5281 15.5312 63.2339 15.5312ZM62.1245 22.1875H35.4995V17.75H62.1245V22.1875Z" fill="white"/>
<path d="M26.6245 21.0781C26.6245 20.7839 26.5076 20.5017 26.2996 20.2937C26.0915 20.0856 25.8094 19.9688 25.5151 19.9688H12.2026C11.9084 19.9688 11.6262 20.0856 11.4182 20.2937C11.2101 20.5017 11.0933 20.7839 11.0933 21.0781V34.3906C11.0933 34.6848 11.2101 34.967 11.4182 35.1751C11.6262 35.3831 11.9084 35.5 12.2026 35.5H25.5151C25.8094 35.5 26.0915 35.3831 26.2996 35.1751C26.5076 34.967 26.6245 34.6848 26.6245 34.3906V21.0781ZM24.4058 33.2812H13.312V22.1875H24.4058V33.2812Z" fill="white"/>
</svg>
