<svg width="50" height="40" viewBox="0 0 50 40" fill="none" xmlns="http://www.w3.org/2000/svg">
<circle cx="23.3333" cy="20" r="15.1667" stroke="#317FD9" stroke-width="3"/>
<circle cx="45.8333" cy="35.8333" r="3.16667" stroke="#317FD9" stroke-width="2"/>
<circle cx="42.0614" cy="8.46491" r="4.16667" transform="rotate(-180 42.0614 8.46491)" fill="#317FD9"/>
<path fill-rule="evenodd" clip-rule="evenodd" d="M33.7736 9.71928C34.8584 9.6297 35.8878 9.59457 36.8501 9.61249C39.059 9.65363 40.7532 9.97164 41.9095 10.4318C43.0558 10.8881 43.4103 11.3655 43.5269 11.6318C43.6436 11.8981 43.7484 12.4688 43.2679 13.5322C42.7833 14.6049 41.8049 15.9206 40.248 17.3675C37.1464 20.2498 32.2 23.2354 26.119 25.5053C20.038 27.7753 14.2337 28.8028 9.83332 28.7209C7.62445 28.6797 5.93019 28.3617 4.77395 27.9015C3.62767 27.4453 3.27316 26.9678 3.15648 26.7015C3.0398 26.4352 2.93507 25.8646 3.41549 24.8011C3.9001 23.7284 4.87854 22.4127 6.43545 20.9659C7.27326 20.1873 8.24568 19.4012 9.3387 18.6236L9.83326 14.6671C2.73754 19.0183 -1.23818 24.1353 0.34591 27.7507C2.5447 32.769 14.6227 32.994 27.323 28.2531C40.0232 23.5123 48.5363 15.601 46.3375 10.5827C44.7881 7.04638 38.333 5.89032 30.2114 7.1748L33.7736 9.71928Z" fill="#317FD9"/>
<path d="M1.74986 2.8371L7.42407 6.3368M2.83712 7.42405L6.33681 1.74985" stroke="#317FD9" stroke-width="2"/>
</svg>
