<svg width="71" height="71" viewBox="0 0 71 71" fill="none" xmlns="http://www.w3.org/2000/svg">
<g clip-path="url(#clip0)">
<path d="M70.9995 24.1802C70.9979 23.1023 70.6808 22.0092 69.9799 21.1081L64.3542 13.9099C63.4119 12.7134 61.9782 12.1043 60.5455 12.1019C59.6928 12.1019 58.8245 12.3204 58.0574 12.7989L52.5721 16.2116C51.9952 16.5795 51.0062 16.832 50.0509 16.8255C49.3087 16.8287 48.5915 16.6802 48.118 16.4462L42.7464 13.8443C41.8799 13.4272 40.9141 13.2562 39.9428 13.2545C38.5479 13.2611 37.1353 13.6039 36.0001 14.3905L35.3733 14.8303C34.8723 14.5802 34.1067 14.1993 33.2394 13.7678C32.1994 13.2579 30.9765 13.0522 29.7412 13.0482C28.6253 13.0514 27.5097 13.2233 26.5301 13.6371L22.8714 15.1983C22.2759 15.4565 21.3288 15.6251 20.388 15.621C19.4473 15.625 18.5018 15.4564 17.9064 15.1983L14.2443 13.6363C13.5763 13.3515 12.8623 13.2297 12.1547 13.2289C11.3398 13.2297 10.5298 13.3903 9.77699 13.6952C9.02511 14.0018 8.32718 14.4545 7.77138 15.0756L1.10404 22.5425C0.365056 23.3677 -0.00200894 24.4069 -0.000483547 25.4299C-0.00200894 26.6498 0.519952 27.8736 1.52671 28.7313L7.74614 34.0374L4.79576 37.1153C3.98245 37.9641 3.57753 39.0646 3.57753 40.1527C3.576 41.3105 4.03584 42.4795 4.94664 43.3402L5.54514 43.9089C6.10912 44.4439 6.78681 44.7842 7.49598 44.9657C7.14029 45.62 6.94587 46.3374 6.94739 47.0561C6.94587 48.2147 7.4057 49.3829 8.31484 50.2446L8.31331 50.2437L8.91362 50.8149C9.76812 51.6249 10.8758 52.0283 11.9672 52.0276C12.5538 52.0284 13.141 51.9106 13.6929 51.6798C13.8867 52.4657 14.2867 53.2127 14.916 53.8097L15.5163 54.3809C16.3708 55.1909 17.4767 55.5943 18.5699 55.5936C19.4244 55.5944 20.2828 55.3426 21.0218 54.8537C21.2379 55.5492 21.6083 56.2083 22.1722 56.744L22.7725 57.3152C23.6252 58.1252 24.7329 58.5285 25.8245 58.5279C26.987 58.5287 28.161 58.072 29.0281 57.1668L31.6357 54.4438L35.1784 57.7226C36.0263 58.5091 37.1148 58.9005 38.1892 58.8981C39.3696 58.9006 40.5603 58.4277 41.4293 57.4975L41.9948 56.8917C42.4829 56.3673 42.8016 55.7468 42.9864 55.0991L44.3587 56.3657C45.2082 57.149 46.2951 57.5387 47.368 57.5379C48.5499 57.5387 49.744 57.0658 50.6138 56.1349L51.1761 55.5298C51.8255 54.836 52.191 53.9766 52.3039 53.099C52.6661 53.1918 53.0332 53.2547 53.4034 53.2547C54.5853 53.2547 55.7761 52.7827 56.6467 51.8526L57.2107 51.2474C57.9989 50.4027 58.3911 49.3192 58.3894 48.251C58.3894 47.9195 58.3418 47.5896 58.2683 47.2635C59.2486 47.1336 60.1991 46.6964 60.9218 45.9202L61.4873 45.3144C62.2755 44.4696 62.666 43.3861 62.666 42.3171C62.6676 41.1409 62.1933 39.954 61.2574 39.0892L60.1997 38.1123L69.7456 27.558C70.6026 26.6078 70.998 25.3847 70.9995 24.1802ZM8.59911 42.72C8.09338 42.7184 7.59874 42.5376 7.21226 42.1714L6.61278 41.6027C6.19801 41.2105 5.99319 40.6887 5.99153 40.1529C5.99319 39.6503 6.17305 39.1597 6.54344 38.7732L12.5862 32.4674C12.9799 32.0566 13.5052 31.851 14.0441 31.8503C14.5483 31.8511 15.0413 32.0327 15.4309 32.3997L16.0279 32.9692C16.0279 32.9692 16.646 33.8832 16.6475 34.4198C16.646 34.8215 16.5249 35.2128 16.2901 35.5517C16.27 35.5718 9.76812 42.348 9.76812 42.348C9.42282 42.5924 9.01458 42.7182 8.59911 42.72ZM13.4252 49.0097C13.0323 49.4188 12.5079 49.6236 11.969 49.6253C11.4632 49.6244 10.9701 49.4429 10.5821 49.0767L9.98181 48.5062L9.98029 48.5053C9.56885 48.1148 9.36222 47.5914 9.36222 47.0555C9.36222 46.553 9.54375 46.0624 9.91234 45.6759C9.91234 45.6759 17.9672 37.2911 18.035 37.2102C18.42 36.84 18.916 36.6488 19.4283 36.6479C19.934 36.6488 20.4271 36.8295 20.8151 37.1965L21.4154 37.7677C21.8284 38.1582 22.0335 38.681 22.035 39.2175C22.0334 39.7201 21.852 40.2114 21.4831 40.5979L13.4252 49.0097ZM20.0269 52.5747C19.6349 52.9847 19.1106 53.1898 18.5716 53.1913C18.0658 53.1905 17.5727 53.009 17.1847 52.6419L16.5827 52.0714C16.1698 51.6801 15.9631 51.1574 15.9631 50.6216C15.9631 50.1732 16.1157 49.7381 16.4076 49.3759L22.0171 43.5211C22.3956 43.1798 22.8698 42.9999 23.3613 42.9999C23.867 43.0008 24.3601 43.1815 24.7481 43.5485L25.3501 44.1197C25.7616 44.5102 25.9682 45.033 25.9697 45.5687C25.968 46.0722 25.785 46.5635 25.4178 46.949L20.0269 52.5747ZM30.6855 51.9568L27.2817 55.5092C26.8895 55.919 26.3644 56.1241 25.8255 56.1256C25.3198 56.1248 24.8266 55.9433 24.4386 55.5762L23.8383 55.0057C23.4269 54.6152 23.2203 54.0917 23.2187 53.5559C23.2203 53.0524 23.4018 52.5611 23.7706 52.1763L27.173 48.6239C27.5667 48.2141 28.0919 48.0083 28.6308 48.0075C29.135 48.0083 29.6297 48.189 30.0177 48.5569L30.6197 49.1274C31.0311 49.5179 31.236 50.0407 31.2377 50.5764C31.2358 51.0798 31.0543 51.5711 30.6855 51.9568ZM60.2556 42.3203C60.2549 42.8137 60.0781 43.297 59.7199 43.681L59.156 44.2861C58.7623 44.7073 58.2281 44.9203 57.6812 44.9211C57.185 44.9203 56.6993 44.746 56.3137 44.3896L46.8099 35.6004L45.1665 37.36L55.3392 46.784C55.7628 47.1762 55.9757 47.7087 55.9789 48.2524C55.9757 48.7477 55.8005 49.2302 55.4432 49.6143L54.8809 50.2195C54.4872 50.6406 53.953 50.8528 53.4061 50.8545C52.9099 50.8529 52.4226 50.6778 52.0402 50.3236L42.5338 41.5346L40.892 43.2942L49.3286 51.0959C49.7352 51.4855 49.9434 52.0043 49.9434 52.5367C49.9434 53.0305 49.7683 53.5136 49.4109 53.8969L48.847 54.5021C48.4548 54.9232 47.9191 55.1362 47.3707 55.1377C46.8728 55.1362 46.3872 54.9611 46.0032 54.6069L37.5836 46.8335H37.5821L37.5806 46.832L35.942 48.5948L35.9437 48.5963L35.9752 48.6261L40.1922 52.5181C40.5658 52.9021 40.7593 53.3942 40.7609 53.9033C40.7593 54.3946 40.5857 54.8754 40.2284 55.2588L39.6644 55.8647C39.2707 56.2858 38.7382 56.4971 38.1928 56.4988C37.6966 56.4973 37.2109 56.323 36.8269 55.9673L33.1553 52.5675C33.4748 51.9407 33.6531 51.2605 33.6531 50.5779C33.6546 49.4202 33.1948 48.2528 32.2857 47.3904L31.6837 46.8192C30.831 46.0099 29.7248 45.6059 28.6333 45.6074C28.5486 45.6074 28.4632 45.6268 28.3801 45.6317C28.3801 45.6115 28.3848 45.5905 28.3848 45.5704C28.3863 44.4126 27.0174 42.3812 27.0174 42.3812L26.4171 41.8117C25.7789 41.2065 25.0003 40.829 24.1904 40.6773C24.3574 40.2046 24.4518 39.7124 24.4518 39.2195C24.4518 38.0617 23.9935 36.8934 23.0844 36.0319L22.4841 35.4608C21.6296 34.6508 20.5236 34.2465 19.432 34.2474C19.3046 34.2474 19.1788 34.2732 19.0521 34.2845C19.0174 33.1728 18.5696 32.0619 17.6983 31.2342V31.2333L17.0997 30.6647C16.2452 29.8538 15.1393 29.4496 14.0477 29.4504C12.8834 29.4496 11.7112 29.9063 10.8441 30.8115L9.41769 32.3L3.09897 26.9107C2.64482 26.5218 2.41809 25.9845 2.41643 25.4327C2.41795 24.9704 2.57535 24.5177 2.91093 24.1419L9.57814 16.6752C9.84272 16.3783 10.2341 16.1097 10.6924 15.9231C11.1507 15.7368 11.671 15.6344 12.1574 15.6351C12.5811 15.6351 12.9786 15.7118 13.2966 15.849L16.957 17.4108C17.9889 17.8457 19.1868 18.024 20.3908 18.0279C21.5961 18.0239 22.7926 17.8455 23.8246 17.4108L27.4833 15.8496C28.0473 15.6036 28.8983 15.4511 29.7446 15.4543C30.6805 15.4486 31.618 15.6423 32.1617 15.9198C32.507 16.0916 32.8345 16.2547 33.1386 16.4071L29.4072 19.0301C28.2083 19.8732 27.5621 21.214 27.5637 22.567C27.5622 23.4626 27.8461 24.3742 28.4238 25.1479L28.4223 25.1462L28.9151 25.8085C29.851 27.0527 31.3104 27.6924 32.7691 27.6956C33.5928 27.6956 34.4319 27.4874 35.1797 27.0388L37.4112 25.6987C37.8664 25.4204 38.5536 25.2445 39.2643 25.2477C40.0994 25.2429 40.9409 25.4898 41.4467 25.8616L47.6203 30.2876C48.9942 31.2719 51.2321 33.0977 52.4723 34.2465L59.6179 40.8533C60.041 41.2456 60.254 41.7757 60.2556 42.3203ZM67.954 25.9519L58.4347 36.4779L54.1128 32.4828C52.759 31.2331 50.5267 29.4106 49.0293 28.3351L42.8574 23.9091C41.811 23.1678 40.5298 22.8473 39.2632 22.8426C38.1853 22.8458 37.0994 23.0807 36.162 23.6388L33.9321 24.979C33.59 25.1846 33.1867 25.2896 32.7678 25.2904C32.019 25.2929 31.2696 24.9435 30.8518 24.3746L30.3605 23.7132L30.3588 23.7115C30.0974 23.359 29.9757 22.9637 29.9739 22.5634C29.977 21.9583 30.2562 21.371 30.7969 20.9894L37.3947 16.3536C37.9652 15.9406 38.9802 15.6509 39.9442 15.6581C40.6139 15.6549 41.2536 15.7896 41.6916 16.0059L47.0631 18.6078C47.9789 19.0476 49.0124 19.2274 50.0522 19.2299C51.3881 19.2234 52.7386 18.933 53.8514 18.2496L59.3383 14.8362C59.6885 14.6177 60.1088 14.5047 60.547 14.5047C61.2876 14.5031 62.0298 14.8387 62.4501 15.3865L68.0758 22.5847C68.4001 22.9969 68.588 23.5785 68.588 24.1813C68.589 24.8554 68.3509 25.5187 67.954 25.9519Z" fill="white"/>
</g>
<defs>
<clipPath id="clip0">
<rect width="71" height="71" fill="white" transform="translate(-0.000488281)"/>
</clipPath>
</defs>
</svg>
