<svg width="66" height="69" viewBox="0 0 66 69" fill="none" xmlns="http://www.w3.org/2000/svg">
<path d="M10 2L13.6637 5.90794M13.6637 2L10 5.90794" stroke="white" stroke-width="1.3"/>
<path d="M36.4164 1.83886C23.5933 -0.237183 1.36684 21.6229 22.3722 42.2617C23.5934 43.7679 25.938 48.0748 25.5472 53.2528C25.588 53.9856 26.1579 55.4266 28.1119 55.3289M28.1119 55.3289C26.4021 56.0617 26.8906 58.6262 29.5773 58.7484M28.1119 55.3289C29.278 55.2706 32.7927 55.2674 36.2941 55.2829M42.6445 58.7484C45.6976 58.7484 45.5755 55.0847 42.6445 55.3289C41.0195 55.3125 38.6599 55.2934 36.2941 55.2829M42.6445 58.7484H29.5773M42.6445 58.7484C45.9419 58.7484 45.5755 62.6563 42.7667 62.6563L42.2782 62.6518M29.5773 58.7484C26.8906 58.8705 26.6464 62.4121 29.5773 62.5342L30.188 62.5398M42.2782 62.6518V65.8315C42.2375 66.4828 41.7653 67.7611 40.2021 67.6634H32.5083C31.6534 67.7041 29.9926 67.3458 30.188 65.5873V62.5398M42.2782 62.6518L30.188 62.5398M36.2941 55.2829V33.2178C36.2941 32.7488 36.1293 32.2947 35.8285 31.9349L30.9962 26.1552C30.4413 25.4914 29.5224 25.2597 28.7191 25.5811L23.9597 27.4848M19.1968 18.3256C19.1968 17.6335 19.9052 15.5167 22.7384 12.5858M25.6694 10.0212C26.6057 9.28845 28.869 7.77412 30.4322 7.57872M44.7202 40.6741C48.5857 40.6741 49.2848 43.7697 48.1396 46.1664M48.1396 46.1664C47.16 48.2166 44.8311 49.7554 41.9802 48.4083C41.3783 48.1239 41.0565 47.4802 41.0565 46.8144V5.54078C41.0565 4.97248 41.2952 4.41929 41.7476 4.07531C47.0796 0.0210303 51.1275 5.2818 49.6051 8.6832M48.1396 46.1664C51.2143 49.2442 57.8357 45.884 57.29 40.0296C57.2152 39.2272 57.4925 38.417 58.0196 37.8074C59.8293 35.7143 60.2245 32.6552 59.0423 30.7821M51.1927 30.5379C55.3437 28.2858 57.9128 28.9927 59.0423 30.7821M59.0423 30.7821C64.3759 28.1566 66.8794 18.6382 58.8854 15.5717C57.8878 15.189 57.2367 14.191 57.1779 13.1242C56.9237 8.5084 52.3492 7.06825 49.6051 8.6832M48.6281 16.4937C46.6654 12.428 47.689 9.81084 49.6051 8.6832" stroke="white" stroke-width="2.5"/>
<circle cx="4.22123" cy="31.2212" r="1.22123" fill="white"/>
<circle cx="3.54158" cy="16.5416" r="2.79158" stroke="white" stroke-width="1.5"/>
</svg>
