<?xml version="1.0" standalone="no"?>
<!DOCTYPE svg PUBLIC "-//W3C//DTD SVG 20010904//EN"
 "http://www.w3.org/TR/2001/REC-SVG-20010904/DTD/svg10.dtd">
<svg version="1.0" xmlns="http://www.w3.org/2000/svg"
 width="800.000000pt" height="800.000000pt" viewBox="0 0 800.000000 800.000000"
 preserveAspectRatio="xMidYMid meet">
<metadata>
Created by potrace 1.11, written by Peter Selinger 2001-2013
</metadata>
<g transform="translate(0.000000,800.000000) scale(0.100000,-0.100000)"
fill="#000000" stroke="none">
<path d="M787 6857 c-48 -78 -92 -148 -96 -156 -7 -11 -42 6 -167 83 -138 85
-160 95 -170 81 -27 -37 -157 -256 -153 -258 2 -2 69 -43 149 -92 80 -48 149
-91 154 -96 5 -4 -35 -78 -88 -164 -54 -86 -96 -158 -94 -160 16 -15 264 -163
269 -160 3 2 47 72 98 155 51 82 96 150 100 150 4 0 76 -43 161 -95 84 -52
155 -94 156 -92 1 1 38 62 84 136 62 102 78 136 68 142 -7 5 -77 48 -155 96
-79 48 -143 91 -143 95 0 4 40 73 90 152 49 80 91 149 92 155 3 8 -247 171
-262 171 -3 0 -44 -64 -93 -143z"/>
<path d="M3545 6660 c-733 -58 -1390 -395 -1857 -950 -236 -281 -431 -653
-524 -1002 -19 -73 -37 -138 -39 -144 -2 -6 -61 -56 -132 -111 -558 -435 -904
-886 -977 -1273 -66 -346 92 -634 447 -816 284 -146 651 -219 1151 -229 l218
-5 92 -86 c236 -223 558 -422 869 -538 705 -263 1468 -222 2138 114 776 390
1311 1131 1439 1994 11 71 23 133 27 137 5 4 54 44 111 88 645 511 993 1039
958 1454 -7 89 -43 206 -82 274 -26 43 -26 44 -11 111 24 103 28 160 17 245
-21 164 -90 299 -211 411 -207 192 -508 231 -762 99 -85 -44 -217 -170 -263
-250 l-30 -53 -393 -3 c-216 -2 -394 0 -396 4 -9 14 -184 129 -288 188 -287
166 -633 280 -978 325 -145 19 -395 27 -524 16z m493 -495 c699 -98 1317 -538
1641 -1168 140 -273 228 -604 234 -877 l2 -115 -85 -58 c-47 -32 -166 -107
-265 -166 -990 -594 -2229 -1018 -3337 -1142 l-188 -21 -20 23 c-60 71 -191
281 -250 403 -151 311 -220 611 -220 956 0 346 68 642 219 955 116 239 247
421 442 611 376 366 853 578 1389 618 91 6 328 -4 438 -19z m2043 -517 c9 -7
24 -33 34 -58 73 -176 230 -319 420 -382 92 -30 287 -33 378 -4 32 10 60 16
63 14 10 -11 -31 -133 -76 -223 -59 -120 -142 -236 -268 -378 -86 -97 -250
-254 -255 -246 -2 2 -13 58 -25 124 -25 139 -78 328 -128 459 -83 214 -254
521 -371 664 l-34 42 123 0 c85 0 129 -4 139 -12z m-4961 -2173 c55 -270 147
-522 277 -758 30 -54 52 -101 49 -104 -8 -9 -247 16 -366 37 -149 27 -270 64
-375 114 -105 51 -170 104 -196 160 -75 165 85 478 415 814 l141 143 16 -148
c9 -81 27 -197 39 -258z m4700 -125 c0 -25 -77 -215 -132 -325 -217 -435 -553
-769 -993 -985 -311 -153 -603 -222 -950 -223 -421 -2 -773 95 -1147 316 -49
28 -88 54 -88 57 0 4 53 14 117 24 582 87 1298 287 1942 542 357 142 819 362
1106 528 136 78 145 83 145 66z"/>
<path d="M7162 2110 c-171 -46 -337 -177 -415 -327 -99 -190 -104 -422 -12
-608 139 -280 455 -430 751 -355 133 34 217 81 315 179 71 70 94 102 127 171
97 204 96 397 -3 598 -77 154 -209 270 -377 329 -101 36 -279 42 -386 13z
m318 -331 c70 -33 131 -95 167 -167 24 -49 28 -69 28 -142 0 -72 -4 -94 -28
-145 -153 -327 -636 -237 -655 122 -9 160 79 293 228 347 69 25 190 18 260
-15z"/>
</g>
</svg>
