<svg width="71" height="71" viewBox="0 0 71 71" fill="none" xmlns="http://www.w3.org/2000/svg">
<path d="M66.0073 6.65625H4.9917C3.96227 6.65742 2.97535 7.06688 2.24743 7.7948C1.51952 8.52271 1.11006 9.50964 1.10889 10.5391V60.4609C1.11006 61.4904 1.51952 62.4773 2.24743 63.2052C2.97535 63.9331 3.96227 64.3426 4.9917 64.3438H66.0073C67.0368 64.3426 68.0237 63.9331 68.7516 63.2052C69.4795 62.4773 69.889 61.4904 69.8901 60.4609V10.5391C69.889 9.50964 69.4795 8.52271 68.7516 7.7948C68.0237 7.06688 67.0368 6.65742 66.0073 6.65625ZM4.9917 8.875H66.0073C66.4485 8.87548 66.8715 9.05095 67.1835 9.36292C67.4954 9.67489 67.6709 10.0979 67.6714 10.5391V13.3125H3.32764V10.5391C3.32811 10.0979 3.50359 9.67489 3.81556 9.36292C4.12753 9.05095 4.55051 8.87548 4.9917 8.875ZM66.0073 62.125H4.9917C4.55051 62.1245 4.12753 61.949 3.81556 61.6371C3.50359 61.3251 3.32811 60.9021 3.32764 60.4609V15.5312H67.6714V60.4609C67.6709 60.9021 67.4954 61.3251 67.1835 61.6371C66.8715 61.949 66.4485 62.1245 66.0073 62.125Z" fill="white"/>
<path d="M5.54639 12.2031H6.65576C6.94999 12.2031 7.23216 12.0862 7.44021 11.8782C7.64826 11.6701 7.76514 11.388 7.76514 11.0938C7.76514 10.7995 7.64826 10.5174 7.44021 10.3093C7.23216 10.1013 6.94999 9.98438 6.65576 9.98438H5.54639C5.25216 9.98438 4.96999 10.1013 4.76194 10.3093C4.55389 10.5174 4.43701 10.7995 4.43701 11.0938C4.43701 11.388 4.55389 11.6701 4.76194 11.8782C4.96999 12.0862 5.25216 12.2031 5.54639 12.2031Z" fill="white"/>
<path d="M9.98389 12.2031H11.0933C11.3875 12.2031 11.6697 12.0862 11.8777 11.8782C12.0858 11.6701 12.2026 11.388 12.2026 11.0938C12.2026 10.7995 12.0858 10.5174 11.8777 10.3093C11.6697 10.1013 11.3875 9.98438 11.0933 9.98438H9.98389C9.68966 9.98438 9.40749 10.1013 9.19944 10.3093C8.99139 10.5174 8.87451 10.7995 8.87451 11.0938C8.87451 11.388 8.99139 11.6701 9.19944 11.8782C9.40749 12.0862 9.68966 12.2031 9.98389 12.2031Z" fill="white"/>
<path d="M14.4214 12.2031H15.5308C15.825 12.2031 16.1072 12.0862 16.3152 11.8782C16.5233 11.6701 16.6401 11.388 16.6401 11.0938C16.6401 10.7995 16.5233 10.5174 16.3152 10.3093C16.1072 10.1013 15.825 9.98438 15.5308 9.98438H14.4214C14.1272 9.98438 13.845 10.1013 13.6369 10.3093C13.4289 10.5174 13.312 10.7995 13.312 11.0938C13.312 11.388 13.4289 11.6701 13.6369 11.8782C13.845 12.0862 14.1272 12.2031 14.4214 12.2031Z" fill="white"/>
<path d="M35.4995 41.0469C37.6936 41.0469 39.8385 40.3962 41.6629 39.1772C43.4872 37.9582 44.9091 36.2256 45.7488 34.1985C46.5884 32.1714 46.8081 29.9408 46.3801 27.7888C45.952 25.6369 44.8955 23.6602 43.344 22.1087C41.7925 20.5572 39.8158 19.5006 37.6638 19.0725C35.5118 18.6445 33.2812 18.8642 31.2541 19.7038C29.227 20.5435 27.4944 21.9654 26.2754 23.7898C25.0564 25.6141 24.4058 27.759 24.4058 29.9531C24.4091 32.8943 25.579 35.7141 27.6587 37.7939C29.7385 39.8737 32.5583 41.0435 35.4995 41.0469ZM35.4995 21.0781C37.2548 21.0781 38.9707 21.5986 40.4302 22.5738C41.8897 23.549 43.0272 24.9351 43.6989 26.5568C44.3707 28.1785 44.5464 29.963 44.204 31.6845C43.8615 33.4061 43.0163 34.9875 41.7751 36.2287C40.5339 37.4699 38.9525 38.3151 37.2309 38.6576C35.5093 39 33.7249 38.8243 32.1032 38.1525C30.4815 37.4808 29.0954 36.3433 28.1202 34.8838C27.145 33.4243 26.6245 31.7084 26.6245 29.9531C26.6272 27.6001 27.563 25.3443 29.2269 23.6805C30.8907 22.0167 33.1465 21.0808 35.4995 21.0781Z" fill="white"/>
<path d="M32.4961 34.0657C32.5991 34.1687 32.7214 34.2505 32.856 34.3062C32.9906 34.362 33.1349 34.3907 33.2805 34.3907C33.4262 34.3907 33.5705 34.362 33.7051 34.3062C33.8397 34.2505 33.962 34.1687 34.065 34.0657L40.7213 27.4095C40.9293 27.2014 41.0462 26.9192 41.0462 26.625C41.0462 26.3308 40.9293 26.0486 40.7213 25.8405C40.5132 25.6325 40.231 25.5156 39.9368 25.5156C39.6426 25.5156 39.3604 25.6325 39.1523 25.8405L33.2805 31.7123L31.8463 30.278C31.6382 30.07 31.356 29.9531 31.0618 29.9531C30.7676 29.9531 30.4854 30.07 30.2773 30.278C30.0693 30.4861 29.9524 30.7683 29.9524 31.0625C29.9524 31.3567 30.0693 31.6389 30.2773 31.847L32.4961 34.0657Z" fill="white"/>
<path d="M15.5308 53.25H32.1714C32.4656 53.25 32.7478 53.1331 32.9558 52.9251C33.1639 52.717 33.2808 52.4348 33.2808 52.1406C33.2808 51.8464 33.1639 51.5642 32.9558 51.3562C32.7478 51.1481 32.4656 51.0312 32.1714 51.0312H15.5308C15.2365 51.0312 14.9544 51.1481 14.7463 51.3562C14.5383 51.5642 14.4214 51.8464 14.4214 52.1406C14.4214 52.4348 14.5383 52.717 14.7463 52.9251C14.9544 53.1331 15.2365 53.25 15.5308 53.25Z" fill="white"/>
<path d="M55.4683 54.3594H15.5308C15.2365 54.3594 14.9544 54.4763 14.7463 54.6843C14.5383 54.8924 14.4214 55.1745 14.4214 55.4688C14.4214 55.763 14.5383 56.0451 14.7463 56.2532C14.9544 56.4612 15.2365 56.5781 15.5308 56.5781H55.4683C55.7625 56.5781 56.0447 56.4612 56.2527 56.2532C56.4608 56.0451 56.5776 55.763 56.5776 55.4688C56.5776 55.1745 56.4608 54.8924 56.2527 54.6843C56.0447 54.4763 55.7625 54.3594 55.4683 54.3594Z" fill="white"/>
<path d="M39.937 57.6875H26.6245C26.3303 57.6875 26.0481 57.8044 25.8401 58.0124C25.632 58.2205 25.5151 58.5027 25.5151 58.7969C25.5151 59.0911 25.632 59.3733 25.8401 59.5813C26.0481 59.7894 26.3303 59.9062 26.6245 59.9062H39.937C40.2312 59.9062 40.5134 59.7894 40.7215 59.5813C40.9295 59.3733 41.0464 59.0911 41.0464 58.7969C41.0464 58.5027 40.9295 58.2205 40.7215 58.0124C40.5134 57.8044 40.2312 57.6875 39.937 57.6875Z" fill="white"/>
<path d="M44.3745 57.6875H43.2651C42.9709 57.6875 42.6887 57.8044 42.4807 58.0124C42.2726 58.2205 42.1558 58.5027 42.1558 58.7969C42.1558 59.0911 42.2726 59.3733 42.4807 59.5813C42.6887 59.7894 42.9709 59.9062 43.2651 59.9062H44.3745C44.6687 59.9062 44.9509 59.7894 45.159 59.5813C45.367 59.3733 45.4839 59.0911 45.4839 58.7969C45.4839 58.5027 45.367 58.2205 45.159 58.0124C44.9509 57.8044 44.6687 57.6875 44.3745 57.6875Z" fill="white"/>
<path d="M55.4683 51.0312H35.4995C35.2053 51.0312 34.9231 51.1481 34.7151 51.3562C34.507 51.5642 34.3901 51.8464 34.3901 52.1406C34.3901 52.4348 34.507 52.717 34.7151 52.9251C34.9231 53.1331 35.2053 53.25 35.4995 53.25H55.4683C55.7625 53.25 56.0447 53.1331 56.2527 52.9251C56.4608 52.717 56.5776 52.4348 56.5776 52.1406C56.5776 51.8464 56.4608 51.5642 56.2527 51.3562C56.0447 51.1481 55.7625 51.0312 55.4683 51.0312Z" fill="white"/>
<path d="M27.7339 42.1562C27.4397 42.1562 27.1575 42.2731 26.9494 42.4812C26.7414 42.6892 26.6245 42.9714 26.6245 43.2656V46.5938C26.6245 46.888 26.7414 47.1701 26.9494 47.3782C27.1575 47.5862 27.4397 47.7031 27.7339 47.7031H43.2651C43.5594 47.7031 43.8415 47.5862 44.0496 47.3782C44.2576 47.1701 44.3745 46.888 44.3745 46.5938V43.2656C44.3745 42.9714 44.2576 42.6892 44.0496 42.4812C43.8415 42.2731 43.5594 42.1562 43.2651 42.1562H27.7339ZM42.1558 45.4844H28.8433V44.375H42.1558V45.4844Z" fill="white"/>
</svg>
