<svg width="71" height="71" viewBox="0 0 71 71" fill="none" xmlns="http://www.w3.org/2000/svg">
<g clip-path="url(#clip0)">
<path d="M62.7155 8.28584H48.3977C45.1435 1.16586 36.7336 -1.96793 29.6136 1.28611C26.515 2.70235 24.0301 5.18726 22.6139 8.28584H8.28429C4.3648 8.28968 1.18842 11.4661 1.18457 15.3856V52.0674C1.18842 55.9869 4.3648 59.1633 8.28429 59.1671H26.7601L25.1804 63.9003H11.8341C9.87359 63.9003 8.28429 65.4896 8.28429 67.4501C8.28429 69.4107 9.87359 71 11.8341 71H59.1656C61.1262 71 62.7155 69.4107 62.7155 67.4501C62.7155 65.4896 61.1262 63.9003 59.1656 63.9003H45.8193L44.2396 59.1671H62.7155C66.635 59.1633 69.8113 55.9869 69.8152 52.0674V15.3856C69.8112 11.4662 66.6348 8.28983 62.7155 8.28584ZM35.4999 2.36941C42.035 2.36941 47.3327 7.66713 47.3327 14.2023C47.3327 20.7374 42.035 26.0351 35.4999 26.0351C28.9647 26.0351 23.667 20.7374 23.667 14.2023C23.6741 7.67023 28.9677 2.37665 35.4999 2.36941ZM59.1656 66.2669C59.8191 66.2669 60.3489 66.7967 60.3489 67.4501C60.3489 68.1036 59.8191 68.6334 59.1656 68.6334H11.8341C11.1807 68.6334 10.6509 68.1036 10.6509 67.4501C10.6509 66.7967 11.1807 66.2669 11.8341 66.2669H59.1656ZM27.676 63.9003L29.2557 59.1671H41.7441L43.3214 63.9003H27.676ZM67.4486 52.0674C67.4486 54.6815 65.3295 56.8006 62.7155 56.8006H8.28429C5.67026 56.8006 3.55114 54.6815 3.55114 52.0674V49.7009H67.4486V52.0674ZM67.4486 47.3343H3.55114V15.3856C3.55114 12.7715 5.67026 10.6524 8.28429 10.6524H21.7738C20.7412 14.5423 21.4307 18.6883 23.667 22.0344V29.9151L18.6522 31.5871C17.7827 29.1378 15.0923 27.8572 12.6431 28.7268C10.1938 29.5964 8.91321 32.2867 9.78277 34.736C10.6523 37.1852 13.3427 38.4658 15.7919 37.5963C17.3761 37.0339 18.5398 35.6693 18.8451 34.0164L25.2242 31.8865C25.706 31.726 26.0317 31.276 26.0336 30.7683V24.756C27.722 26.275 29.7513 27.3651 31.95 27.9343V34.8684L29.8201 36.2883C27.5938 34.7706 24.5586 35.3451 23.0409 37.5714C21.5232 39.7978 22.0977 42.8329 24.324 44.3506C26.5504 45.8683 29.5855 45.2937 31.1032 43.0675C32.1135 41.5856 32.2291 39.669 31.4044 38.0762L33.7899 36.4859C34.119 36.2664 34.3164 35.8969 34.3164 35.5014V28.3414C34.7081 28.3745 35.0998 28.4017 35.4997 28.4017C35.8997 28.4017 36.2913 28.3745 36.683 28.3414V33.1348C36.683 33.5304 36.8805 33.8998 37.2096 34.1193L39.5951 35.7097C39.2416 36.3745 39.0545 37.1151 39.0496 37.868C39.0416 40.4899 41.1607 42.6217 43.7826 42.6297C46.4044 42.6377 48.5363 40.5186 48.5443 37.8967C48.5523 35.2748 46.4331 33.143 43.8113 33.135C42.8756 33.1322 41.96 33.4058 41.1795 33.9217L39.0496 32.5018V27.9343C41.2483 27.3651 43.2776 26.275 44.966 24.756V29.585C44.9659 30.0335 45.2192 30.4436 45.6204 30.644L52.1438 33.9052C52.576 36.4766 55.0109 38.2108 57.5824 37.7786C60.1538 37.3465 61.8881 34.9115 61.4559 32.3401C61.0237 29.7687 58.5888 28.0344 56.0173 28.4666C54.3847 28.741 53.015 29.8505 52.4077 31.3907L47.3326 28.8537V22.0344C49.5708 18.6893 50.2627 14.5431 49.2318 10.6524H62.7153C65.3293 10.6524 67.4485 12.7715 67.4485 15.3856V47.3343H67.4486ZM16.5673 33.1348C16.5673 34.4419 15.5078 35.5014 14.2007 35.5014C12.8936 35.5014 11.8341 34.4419 11.8341 33.1348C11.8341 31.8278 12.8936 30.7683 14.2007 30.7683C15.5078 30.7683 16.5673 31.8279 16.5673 33.1348ZM29.5834 40.2346C29.5834 41.5417 28.524 42.6011 27.2169 42.6011C25.9098 42.6011 24.8503 41.5417 24.8503 40.2346C24.8503 38.9275 25.9098 37.868 27.2169 37.868C28.524 37.868 29.5834 38.9276 29.5834 40.2346ZM41.4163 37.868C41.4163 36.5609 42.4758 35.5014 43.7829 35.5014C45.09 35.5014 46.1495 36.5609 46.1495 37.868C46.1495 39.1751 45.09 40.2346 43.7829 40.2346C42.4758 40.2346 41.4163 39.1751 41.4163 37.868ZM54.4325 33.1348C54.4325 31.8278 55.4919 30.7683 56.799 30.7683C58.1061 30.7683 59.1656 31.8278 59.1656 33.1348C59.1656 34.4419 58.1061 35.5014 56.799 35.5014C55.4919 35.5014 54.4325 34.4419 54.4325 33.1348Z" fill="white"/>
<path d="M36.683 52.0674H34.3164V54.434H36.683V52.0674Z" fill="white"/>
<path d="M36.336 5.08265C35.8739 4.62072 35.1249 4.62072 34.6628 5.08265L29.9297 9.8158L31.6029 11.489L34.3161 8.77569V16.5688H36.6827V8.77569L39.396 11.489L41.0691 9.8158L36.336 5.08265Z" fill="white"/>
<path d="M40.2328 16.5688V18.9354H30.7665V16.5688H28.3999V20.1187C28.3999 20.7722 28.9297 21.302 29.5832 21.302H41.416C42.0695 21.302 42.5993 20.7722 42.5993 20.1187V16.5688H40.2328Z" fill="white"/>
<path d="M17.7507 18.9354H7.10107V21.302H17.7507V18.9354Z" fill="white"/>
<path d="M14.2008 23.6685H7.10107V26.0351H14.2008V23.6685Z" fill="white"/>
<path d="M17.7504 14.2023H11.834V16.5688H17.7504V14.2023Z" fill="white"/>
<path d="M9.46764 14.2023H7.10107V16.5688H9.46764V14.2023Z" fill="white"/>
<path d="M9.46764 41.4178H7.10107V43.7844H9.46764V41.4178Z" fill="white"/>
<path d="M14.2006 41.4178H11.834V43.7844H14.2006V41.4178Z" fill="white"/>
<path d="M18.934 41.4178H16.5674V43.7844H18.934V41.4178Z" fill="white"/>
<path d="M63.8988 41.4178H61.5322V43.7844H63.8988V41.4178Z" fill="white"/>
<path d="M59.1654 41.4178H56.7988V43.7844H59.1654V41.4178Z" fill="white"/>
<path d="M54.4325 41.4178H52.0659V43.7844H54.4325V41.4178Z" fill="white"/>
<path d="M63.8986 18.9354H53.249V21.302H63.8986V18.9354Z" fill="white"/>
<path d="M60.3487 23.6685H53.249V26.0351H60.3487V23.6685Z" fill="white"/>
<path d="M63.8989 14.2023H57.9824V16.5688H63.8989V14.2023Z" fill="white"/>
<path d="M55.6156 14.2023H53.249V16.5688H55.6156V14.2023Z" fill="white"/>
</g>
<defs>
<clipPath id="clip0">
<rect width="71" height="71" fill="white" transform="translate(-0.000488281)"/>
</clipPath>
</defs>
</svg>
