<svg width="183" height="68" viewBox="0 0 183 68" fill="none" xmlns="http://www.w3.org/2000/svg">
<path fill-rule="evenodd" clip-rule="evenodd" d="M15.7546 11.2531C15.7546 5.03818 20.7927 0 27.0077 0H159.794C166.009 0 171.047 5.03818 171.047 11.2531C171.047 17.468 166.009 22.5062 159.794 22.5062H144.074C150.273 22.5247 155.293 27.5558 155.293 33.7592C155.293 39.9741 150.254 45.0123 144.04 45.0123H11.2531C5.03819 45.0123 0 39.9741 0 33.7592C0 27.5443 5.03818 22.5061 11.2531 22.5061H26.9732C20.7742 22.4876 15.7546 17.4565 15.7546 11.2531ZM38.261 45.0124C32.0461 45.0124 27.0079 50.0505 27.0079 56.2654C27.0079 62.4804 32.0461 67.5185 38.261 67.5185H171.047C177.262 67.5185 182.301 62.4804 182.301 56.2654C182.301 50.0505 177.262 45.0124 171.047 45.0124H38.261Z" fill="white" fill-opacity="0.15"/>
</svg>
