<svg width="1280" height="700" viewBox="0 0 1280 700" fill="none" xmlns="http://www.w3.org/2000/svg">
<g clip-path="url(#clip0)">
<g filter="url(#filter0_d)">
<rect x="1" y="-2" width="1280" height="700" fill="url(#paint0_linear)"/>
<path d="M515.5 253.5C558.333 217.333 673.3 132.6 790.5 83" stroke="url(#paint1_linear)"/>
<path d="M519 444.524C302.2 146.555 83.3333 320.37 1 444.524V618L1278 597.024V444.524C1203.2 312.093 1113.17 389.345 1077.5 444.524C1034.3 484.889 980.5 461.343 959 444.524C830.2 310.279 710.333 388.589 666.5 444.524C605.7 508.472 542.833 471.169 519 444.524Z" fill="#07435B" fill-opacity="0.8"/>
<path d="M611 499C517.8 363.8 384.833 478.667 330 553V584.5H1280V295C939.6 172.6 765.5 346 721 448C665.8 530.8 624.667 516.5 611 499Z" fill="#07435B"/>
<path d="M719.5 735C511.9 430.2 154.333 461.667 1.5 515.5V735H719.5Z" fill="url(#paint2_linear)"/>
<path d="M298 737.5C526.8 464.7 1048 433.167 1280 451.5V737.5H298Z" fill="url(#paint3_linear)"/>
<rect x="1214" y="657" width="16" height="103" fill="#120F17"/>
<circle cx="1221" cy="609" r="75" fill="#232534"/>
<rect x="228.32" y="639.645" width="3.84" height="51.6215" fill="#120F17"/>
<ellipse cx="230" cy="615.589" rx="18" ry="37.5885" fill="#232535"/>
<rect x="247.146" y="656.8" width="3.09333" height="27.4667" fill="#120F17"/>
<ellipse cx="248.5" cy="644" rx="14.5" ry="20" fill="#0D0D13"/>
<rect x="340.258" y="636.636" width="2.88425" height="20.6304" fill="#120F17"/>
<ellipse cx="341.52" cy="627.022" rx="13.5199" ry="15.0221" fill="#0D0D13"/>
<rect x="325.258" y="628.636" width="2.88425" height="20.6304" fill="#120F17"/>
<ellipse cx="326.52" cy="619.022" rx="13.5199" ry="15.0221" fill="#292438"/>
<rect x="453.258" y="535.636" width="2.88425" height="20.6304" fill="#120F17"/>
<ellipse cx="454.52" cy="526.022" rx="13.5199" ry="15.0221" fill="#070C10"/>
<rect x="1091.26" y="469.216" width="2.88425" height="42.0507" fill="#120F17"/>
<ellipse cx="1092.52" cy="449.619" rx="13.5199" ry="30.6195" fill="#050A1A"/>
<rect x="834.258" y="526.216" width="2.88425" height="42.0507" fill="#120F17"/>
<ellipse cx="835.52" cy="506.619" rx="13.5199" ry="30.6195" fill="#050A1A"/>
<rect x="1135.26" y="446.942" width="2.88425" height="56.0575" fill="#120F17"/>
<ellipse cx="1136.52" cy="420.819" rx="13.5199" ry="40.8186" fill="#0B0C12"/>
<rect x="878.258" y="503.942" width="2.88425" height="56.0575" fill="#120F17"/>
<ellipse cx="879.52" cy="477.819" rx="13.5199" ry="40.8186" fill="#0B0C12"/>
<rect x="246.457" y="512.899" width="7.40153" height="47.6474" fill="#120F17"/>
<circle cx="249.695" cy="490.695" r="34.6947" fill="#0B0C11"/>
<rect x="59.0142" y="535.458" width="2.82678" height="32.2045" fill="#120F17"/>
<ellipse cx="60.2505" cy="520.45" rx="13.2505" ry="23.4499" fill="#0A0B0E"/>
<rect x="1260.01" y="484.458" width="2.82678" height="32.2045" fill="#120F17"/>
<ellipse cx="1261.25" cy="469.45" rx="13.2505" ry="23.4499" fill="#0A0B0E"/>
<rect x="991.014" y="623.458" width="2.82678" height="32.2045" fill="#120F17"/>
<ellipse cx="992.251" cy="608.45" rx="13.2505" ry="23.4499" fill="#0A0B0E"/>
<rect x="567.014" y="668.458" width="2.82678" height="32.2045" fill="#120F17"/>
<ellipse cx="568.251" cy="653.45" rx="13.2505" ry="23.4499" fill="#0A0B0E"/>
<circle cx="75.7212" cy="694.721" r="28.7212" fill="#0A080D"/>
<rect x="705.722" y="526.674" width="4.64047" height="29.8731" fill="#120F17"/>
<circle cx="707.752" cy="512.752" r="21.7522" fill="#0B0C11"/>
<rect x="1117.03" y="466.46" width="5.65333" height="36.3933" fill="#120F17"/>
<circle cx="1119.5" cy="449.5" r="26.5" fill="#252B45"/>
<rect x="860.026" y="523.46" width="5.65333" height="36.3933" fill="#120F17"/>
<circle cx="862.5" cy="506.5" r="26.5" fill="#252B45"/>
<rect x="774.026" y="661.46" width="5.65333" height="36.3933" fill="#120F17"/>
<circle cx="776.5" cy="644.5" r="26.5" fill="#222433"/>
<rect x="793.796" y="671.956" width="3.24625" height="20.8978" fill="#120F17"/>
<circle cx="795.217" cy="662.217" r="15.2168" fill="#090C10"/>
</g>
<path d="M714.892 173.438L710.015 183.468M717.468 180.892L707.439 176.015" stroke="white" stroke-opacity="0.5" stroke-width="2"/>
<path d="M804.892 74.4384L800.015 84.4683M807.468 81.8917L797.439 77.0149" stroke="white" stroke-opacity="0.5" stroke-width="2"/>
<path d="M968.892 74.4384L964.015 84.4683M971.468 81.8917L961.439 77.0149" stroke="white" stroke-opacity="0.5" stroke-width="2"/>
<path d="M31.8919 310.438L27.0151 320.468M34.4685 317.892L24.4386 313.015" stroke="white" stroke-opacity="0.5" stroke-width="2"/>
<path d="M21.8919 38.4384L17.0151 48.4683M24.4685 45.8917L14.4386 41.0149" stroke="white" stroke-opacity="0.5" stroke-width="2"/>
<path d="M1119.78 163.558L1125.12 173.349M1127.35 165.783L1117.56 171.124" stroke="white" stroke-opacity="0.5" stroke-width="2"/>
<path d="M861.151 268.42L850.311 271.041M857.042 275.151L854.42 264.311" stroke="white" stroke-opacity="0.5" stroke-width="2"/>
<path d="M1270.38 254.484L1273.34 265.235M1277.23 258.375L1266.48 261.344" stroke="white" stroke-opacity="0.5" stroke-width="2"/>
<path d="M542.375 120.484L545.344 131.235M549.235 124.375L538.484 127.344" stroke="white" stroke-opacity="0.5" stroke-width="2"/>
<path d="M490.375 235.484L493.344 246.235M497.235 239.375L486.484 242.344" stroke="white" stroke-opacity="0.5" stroke-width="2"/>
<path d="M386.375 51.4842L389.344 62.2346M393.235 55.3752L382.484 58.3435" stroke="white" stroke-opacity="0.5" stroke-width="2"/>
<circle cx="1040" cy="181" r="3" stroke="white" stroke-opacity="0.4" stroke-width="2"/>
<circle cx="918" cy="146" r="3" stroke="white" stroke-opacity="0.4" stroke-width="2"/>
<circle cx="799" cy="195" r="3" stroke="white" stroke-opacity="0.4" stroke-width="2"/>
<circle cx="1234" cy="42" r="3" stroke="white" stroke-opacity="0.4" stroke-width="2"/>
<circle cx="22" cy="161" r="3" stroke="white" stroke-opacity="0.4" stroke-width="2"/>
<circle cx="677" cy="275" r="3" stroke="white" stroke-opacity="0.4" stroke-width="2"/>
<circle cx="669" cy="115" r="3" stroke="white" stroke-opacity="0.4" stroke-width="2"/>
<circle cx="481" cy="108" r="3" stroke="white" stroke-opacity="0.4" stroke-width="2"/>
<circle cx="427" cy="262" r="3" stroke="white" stroke-opacity="0.4" stroke-width="2"/>
<path d="M543 39C543 40.6569 541.657 42 540 42C538.343 42 537 40.6569 537 39C537 37.3431 538.343 36 540 36C541.657 36 543 37.3431 543 39Z" stroke="white" stroke-opacity="0.4" stroke-width="2"/>
<g filter="url(#filter1_d)">
<circle cx="199.5" cy="145.5" r="126.5" fill="#EDEDED"/>
</g>
<circle cx="238.5" cy="231.5" r="16.5" fill="#C4C4C4" fill-opacity="0.4"/>
<circle cx="284.5" cy="197.5" r="12.5" fill="#C4C4C4" fill-opacity="0.4"/>
<circle cx="254.5" cy="225.5" r="10.5" fill="#C4C4C4" fill-opacity="0.6"/>
<circle cx="272" cy="195" r="7" fill="#C4C4C4" fill-opacity="0.6"/>
<circle cx="121" cy="215" r="7" fill="#C4C4C4" fill-opacity="0.8"/>
</g>
<defs>
<filter id="filter0_d" x="-3" y="-2" width="1303" height="770" filterUnits="userSpaceOnUse" color-interpolation-filters="sRGB">
<feFlood flood-opacity="0" result="BackgroundImageFix"/>
<feColorMatrix in="SourceAlpha" type="matrix" values="0 0 0 0 0 0 0 0 0 0 0 0 0 0 0 0 0 0 127 0"/>
<feOffset dy="4"/>
<feGaussianBlur stdDeviation="2"/>
<feColorMatrix type="matrix" values="0 0 0 0 0 0 0 0 0 0 0 0 0 0 0 0 0 0 0.25 0"/>
<feBlend mode="normal" in2="BackgroundImageFix" result="effect1_dropShadow"/>
<feBlend mode="normal" in="SourceGraphic" in2="effect1_dropShadow" result="shape"/>
</filter>
<filter id="filter1_d" x="3" y="-51" width="393" height="393" filterUnits="userSpaceOnUse" color-interpolation-filters="sRGB">
<feFlood flood-opacity="0" result="BackgroundImageFix"/>
<feColorMatrix in="SourceAlpha" type="matrix" values="0 0 0 0 0 0 0 0 0 0 0 0 0 0 0 0 0 0 127 0"/>
<feMorphology radius="30" operator="dilate" in="SourceAlpha" result="effect1_dropShadow"/>
<feOffset/>
<feGaussianBlur stdDeviation="20"/>
<feColorMatrix type="matrix" values="0 0 0 0 1 0 0 0 0 1 0 0 0 0 1 0 0 0 0.25 0"/>
<feBlend mode="normal" in2="BackgroundImageFix" result="effect1_dropShadow"/>
<feBlend mode="normal" in="SourceGraphic" in2="effect1_dropShadow" result="shape"/>
</filter>
<linearGradient id="paint0_linear" x1="641" y1="-2" x2="641" y2="698" gradientUnits="userSpaceOnUse">
<stop stop-color="#034C6D"/>
<stop offset="1" stop-color="#07516A"/>
</linearGradient>
<linearGradient id="paint1_linear" x1="653" y1="83" x2="653" y2="253.5" gradientUnits="userSpaceOnUse">
<stop stop-color="white" stop-opacity="0"/>
<stop offset="1" stop-color="white"/>
</linearGradient>
<linearGradient id="paint2_linear" x1="0.999995" y1="521" x2="726.5" y2="671" gradientUnits="userSpaceOnUse">
<stop stop-color="#075964"/>
<stop offset="0.473958" stop-color="#0F3540"/>
</linearGradient>
<linearGradient id="paint3_linear" x1="499.5" y1="592" x2="1280" y2="592" gradientUnits="userSpaceOnUse">
<stop stop-color="#0D848F"/>
<stop offset="0.559277" stop-color="#0C3C48"/>
</linearGradient>
<clipPath id="clip0">
<rect width="1280" height="700" fill="white"/>
</clipPath>
</defs>
</svg>
